<svg xmlns="http://www.w3.org/2000/svg" viewBox="0 0 1920 1080"><defs><style>.cls-1,.cls-2,.cls-5{fill:none;}.cls-2,.cls-5{stroke:#fff;stroke-linecap:round;stroke-linejoin:round;}.cls-2{stroke-width:1.3px;}.cls-3{opacity:0.09;}.cls-4{fill:#fff;}.cls-5{stroke-width:0.65px;}</style></defs><title>Asset 5</title><g id="Layer_2" data-name="Layer 2"><g id="Layer_1-2" data-name="Layer 1"><rect class="cls-1" width="1920" height="1080"/><path class="cls-2" d="M1135.37,540.67c-4.47,7.86-9.07,15.42-14.06,22.62-3.76-7.86-8-15.43-12.27-22.68"/><polyline class="cls-2" points="1117.7 592.44 1117.17 595.59 1116.55 598.72 1115.29 604.98"/><polyline class="cls-2" points="1107.67 633.34 1105.68 639.41 1103.52 645.42"/><path class="cls-2" d="M1092.09,672.47c-1.92,3.8-3.75,7.65-5.81,11.37"/><path class="cls-2" d="M1071.21,709.05c-1.14,1.8-2.39,3.52-3.6,5.27s-2.4,3.52-3.69,5.21"/><path class="cls-2" d="M1045.52,742.42c-2.78,3.23-5.75,6.29-8.64,9.41"/><path class="cls-2" d="M1024.09,782l-6.6,1.29-6.62,1.09c-4.34.74-8.78,1.23-13.08,1.76,1.69-4.07,3.4-8,4.89-12.06l2.23-6,2-6"/><g class="cls-3"><path class="cls-4" d="M1173.85,540c0,197.29-159.93,357.22-357.22,357.22S459.41,737.29,459.41,540,619.34,182.78,816.63,182.78,1173.85,342.71,1173.85,540ZM816.63,285.21c-140.72,0-254.79,114.07-254.79,254.79S675.91,794.79,816.63,794.79s254.8-114.07,254.8-254.79S957.35,285.21,816.63,285.21Z"/><g class="cls-3"><path class="cls-4" d="M1173.85,540c0,197.29-159.93,357.22-357.22,357.22S459.41,737.29,459.41,540,619.34,182.78,816.63,182.78,1173.85,342.71,1173.85,540ZM816.63,285.21c-140.72,0-254.79,114.07-254.79,254.79S675.91,794.79,816.63,794.79s254.8-114.07,254.8-254.79S957.35,285.21,816.63,285.21Z"/></g></g><path class="cls-1" d="M1173.85,540c0,197.29-159.93,357.22-357.22,357.22S459.41,737.29,459.41,540,619.34,182.78,816.63,182.78,1173.85,342.71,1173.85,540ZM816.63,285.21c-140.72,0-254.79,114.07-254.79,254.79S675.91,794.79,816.63,794.79s254.8-114.07,254.8-254.79S957.35,285.21,816.63,285.21Z"/><line class="cls-5" x1="802.09" y1="285.65" x2="795.64" y2="286.14"/><polyline class="cls-5" points="780.85 287.76 777.64 288.17 774.46 288.74"/><line class="cls-5" x1="759.87" y1="291.63" x2="753.57" y2="293.09"/><line class="cls-5" x1="739.27" y1="297.2" x2="733.14" y2="299.27"/><path class="cls-5" d="M719.23,304.53c-2,.74-4,1.71-5.93,2.58"/><path class="cls-5" d="M699.89,313.55c-1.91,1-3.87,1.91-5.73,3"/><line class="cls-5" x1="681.36" y1="324.11" x2="675.91" y2="327.61"/><line class="cls-5" x1="663.75" y1="336.17" x2="658.66" y2="340.16"/><path class="cls-5" d="M647.26,349.71c-1.66,1.38-3.21,2.88-4.77,4.38"/><path class="cls-5" d="M631.94,364.57c-1.47,1.57-3,3.1-4.43,4.71"/><line class="cls-5" x1="617.89" y1="380.63" x2="613.9" y2="385.72"/><line class="cls-5" x1="605.2" y1="397.78" x2="601.71" y2="403.23"/><path class="cls-5" d="M594.06,416c-.53.93-1.08,1.86-1.6,2.81L591,421.68"/><line class="cls-5" x1="584.47" y1="435.05" x2="581.81" y2="440.94"/><line class="cls-5" x1="576.47" y1="454.83" x2="574.4" y2="460.95"/><path class="cls-5" d="M570.17,475.22c-.59,2.07-1,4.19-1.51,6.28"/><path class="cls-5" d="M565.69,496.08l-.57,3.18c-.19,1.06-.39,2.12-.51,3.19"/><line class="cls-5" x1="562.9" y1="517.23" x2="562.41" y2="523.68"/><path class="cls-5" d="M561.87,538.55c0,1.07,0,2.15,0,3.23L562,545"/><line class="cls-5" x1="562.68" y1="559.87" x2="563.19" y2="566.32"/><line class="cls-5" x1="565.17" y1="581.06" x2="566.31" y2="587.43"/><path class="cls-5" d="M569.46,602c.44,2.12,1.12,4.17,1.68,6.25"/><path class="cls-5" d="M575.54,622.42c.71,2,1.34,4.1,2.12,6.11"/><line class="cls-5" x1="583.27" y1="642.3" x2="585.94" y2="648.2"/><line class="cls-5" x1="592.61" y1="661.49" x2="595.84" y2="667.1"/><polyline class="cls-5" points="603.63 679.77 605.37 682.49 607.25 685.13"/><line class="cls-5" x1="616.1" y1="697.08" x2="620.1" y2="702.16"/><line class="cls-5" x1="629.94" y1="713.32" x2="634.4" y2="718"/><path class="cls-5" d="M645.07,728.37c1.6,1.43,3.25,2.83,4.88,4.25"/><path class="cls-5" d="M661.46,742l2.54,2c.87.65,1.75,1.26,2.63,1.89"/><line class="cls-5" x1="678.91" y1="754.31" x2="684.35" y2="757.81"/><line class="cls-5" x1="697.3" y1="765.13" x2="703.06" y2="768.08"/><path class="cls-5" d="M716.54,774.36c2,.88,4,1.61,6,2.42"/><path class="cls-5" d="M736.51,781.87c2,.67,4.07,1.44,6.16,2"/><line class="cls-5" x1="757.03" y1="787.71" x2="763.34" y2="789.17"/><line class="cls-5" x1="777.96" y1="791.88" x2="784.38" y2="792.69"/><path class="cls-5" d="M799.18,794.13c2.15.15,4.3.38,6.46.39"/><line class="cls-5" x1="820.51" y1="794.7" x2="826.98" y2="794.53"/><path class="cls-5" d="M841.82,793.55c2.15-.19,4.28-.52,6.42-.78"/><path class="cls-5" d="M862.94,790.52l3.19-.57c1.06-.18,2.12-.37,3.17-.64"/><line class="cls-5" x1="883.75" y1="785.8" x2="889.97" y2="784.03"/><line class="cls-5" x1="904.1" y1="779.38" x2="910.12" y2="777.01"/><path class="cls-5" d="M923.8,771.16l2.94-1.33c1-.46,1.93-1,2.89-1.46"/><line class="cls-5" x1="942.75" y1="761.36" x2="948.36" y2="758.14"/><line class="cls-5" x1="960.83" y1="750.04" x2="966.11" y2="746.29"/><path class="cls-5" d="M977.91,737.24c1.69-1.34,3.28-2.8,4.92-4.2"/><path class="cls-5" d="M993.81,723c1.56-1.49,3.15-3,4.61-4.54"/><line class="cls-5" x1="1008.51" y1="707.54" x2="1012.74" y2="702.65"/><line class="cls-5" x1="1021.89" y1="690.92" x2="1025.64" y2="685.65"/><path class="cls-5" d="M1033.83,673.23c.6-.89,1.13-1.83,1.66-2.77l1.61-2.8"/><path class="cls-5" d="M1044.19,654.58c1-1.93,2-3.81,2.87-5.79"/><line class="cls-5" x1="1052.99" y1="635.15" x2="1055.37" y2="629.13"/><line class="cls-5" x1="1060.17" y1="615.05" x2="1061.94" y2="608.83"/><polyline class="cls-5" points="1065.55 594.4 1066.27 591.25 1066.84 588.06"/><line class="cls-5" x1="1069.18" y1="573.37" x2="1070" y2="566.96"/><line class="cls-5" x1="1071.12" y1="552.12" x2="1071.28" y2="545.66"/><path class="cls-5" d="M1071.19,530.79l-.08-3.24c0-1.08-.14-2.15-.21-3.22"/><line class="cls-5" x1="1069.55" y1="509.51" x2="1068.73" y2="503.1"/><line class="cls-5" x1="1066.2" y1="488.44" x2="1064.75" y2="482.13"/><path class="cls-5" d="M1061,467.75l-.88-3.11c-.31-1-.68-2.05-1-3.07"/><line class="cls-5" x1="1054.06" y1="447.56" x2="1051.69" y2="441.54"/><line class="cls-5" x1="1045.52" y1="428.01" x2="1042.57" y2="422.25"/><polyline class="cls-5" points="1035.33 409.26 1034.52 407.86 1033.65 406.5 1031.91 403.77"/><polyline class="cls-5" points="1023.58 391.45 1021.7 388.81 1020.76 387.5 1019.76 386.23"/><line class="cls-5" x1="1010.41" y1="374.66" x2="1006.18" y2="369.77"/><line class="cls-5" x1="995.92" y1="359" x2="991.24" y2="354.53"/><path class="cls-5" d="M980.14,344.63c-1.6-1.45-3.35-2.72-5-4.07"/><path class="cls-5" d="M963.21,331.65l-2.64-1.88c-.87-.63-1.76-1.25-2.67-1.81"/><line class="cls-5" x1="945.27" y1="320.09" x2="939.66" y2="316.87"/><line class="cls-5" x1="926.45" y1="310.04" x2="920.55" y2="307.37"/><path class="cls-5" d="M906.81,301.68c-1-.38-2-.81-3-1.16l-3.07-1"/><line class="cls-5" x1="886.55" y1="295" x2="880.33" y2="293.23"/><line class="cls-5" x1="865.81" y1="289.99" x2="859.44" y2="288.86"/><path class="cls-5" d="M844.71,286.78c-2.13-.32-4.29-.41-6.44-.59"/><line class="cls-5" x1="823.42" y1="285.38" x2="816.95" y2="285.21"/><path class="cls-5" d="M1173.48,554.57l-.08,3.24c0,1.08-.15,2.15-.21,3.23"/><path class="cls-5" d="M1172.06,575.9c-.21,2.14-.53,4.28-.79,6.43"/><line class="cls-5" x1="1169.26" y1="597.08" x2="1168.12" y2="603.46"/><line class="cls-5" x1="1165.19" y1="618.07" x2="1163.74" y2="624.38"/><line class="cls-5" x1="1159.91" y1="638.77" x2="1158.14" y2="645"/><path class="cls-5" d="M1153.42,659.14l-1,3.06c-.34,1-.78,2-1.16,3"/><line class="cls-5" x1="1145.76" y1="679.09" x2="1143.09" y2="684.99"/><line class="cls-5" x1="1136.78" y1="698.48" x2="1133.82" y2="704.25"/><line class="cls-5" x1="1126.69" y1="717.32" x2="1123.46" y2="722.93"/><polyline class="cls-5" points="1115.53 735.54 1113.78 738.27 1112.9 739.63 1111.97 740.96"/><path class="cls-5" d="M1103.33,753.1c-1.27,1.74-2.65,3.41-4,5.11"/><line class="cls-5" x1="1090.03" y1="769.82" x2="1085.79" y2="774.72"/><line class="cls-5" x1="1075.76" y1="785.74" x2="1071.29" y2="790.42"/><path class="cls-5" d="M1060.61,800.81c-1.58,1.47-3.09,3-4.73,4.42"/><path class="cls-5" d="M1044.62,815c-1.64,1.41-3.38,2.69-5.06,4"/><line class="cls-5" x1="1027.75" y1="828.11" x2="1022.47" y2="831.86"/><line class="cls-5" x1="1010.13" y1="840.2" x2="1004.68" y2="843.7"/><path class="cls-5" d="M991.84,851.27c-1.88,1.06-3.72,2.18-5.63,3.19"/><polyline class="cls-5" points="972.95 861.25 971.51 861.99 970.03 862.66 967.08 863.99"/><line class="cls-5" x1="953.46" y1="870.02" x2="947.43" y2="872.4"/><line class="cls-5" x1="933.47" y1="877.57" x2="927.33" y2="879.65"/><line class="cls-5" x1="913.07" y1="883.94" x2="906.84" y2="885.71"/><path class="cls-5" d="M892.33,889.11l-3.16.73c-1,.24-2.12.39-3.18.59"/><path class="cls-5" d="M871.32,893.05c-2.13.3-4.28.56-6.42.83"/><line class="cls-5" x1="850.11" y1="895.61" x2="843.65" y2="896.1"/><line class="cls-5" x1="828.77" y1="896.91" x2="822.3" y2="897.08"/><line class="cls-5" x1="807.4" y1="896.99" x2="800.93" y2="896.82"/><path class="cls-5" d="M786.06,895.83c-2.15-.18-4.3-.3-6.45-.52"/><path class="cls-5" d="M764.83,893.43c-1.07-.14-2.15-.24-3.21-.43l-3.19-.57"/><line class="cls-5" x1="743.77" y1="889.76" x2="737.46" y2="888.31"/><line class="cls-5" x1="723" y1="884.74" x2="716.77" y2="882.97"/><line class="cls-5" x1="702.56" y1="878.51" x2="696.42" y2="876.43"/><path class="cls-5" d="M682.51,871.09c-2-.81-4-1.53-6-2.43"/><path class="cls-5" d="M662.93,862.53c-1-.43-1.95-.93-2.91-1.42l-2.88-1.48"/><line class="cls-5" x1="643.95" y1="852.72" x2="638.33" y2="849.49"/><line class="cls-5" x1="625.59" y1="841.78" x2="620.13" y2="838.28"/><path class="cls-5" d="M607.89,829.8c-1.76-1.26-3.53-2.49-5.27-3.77"/><path class="cls-5" d="M590.9,816.83c-1.72-1.3-3.3-2.78-4.95-4.17"/><line class="cls-5" x1="574.76" y1="802.82" x2="570.07" y2="798.35"/><line class="cls-5" x1="559.51" y1="787.85" x2="555.04" y2="783.16"/><line class="cls-5" x1="545.14" y1="772.03" x2="540.91" y2="767.13"/><path class="cls-5" d="M531.7,755.41c-1.37-1.67-2.57-3.46-3.84-5.21"/><line class="cls-5" x1="519.31" y1="738" x2="515.81" y2="732.54"/><line class="cls-5" x1="508.03" y1="719.85" x2="504.8" y2="714.23"/><line class="cls-5" x1="497.81" y1="701.08" x2="494.86" y2="695.31"/><path class="cls-5" d="M488.7,681.74c-.44-1-.9-2-1.32-3l-1.19-3"/><line class="cls-5" x1="480.77" y1="661.9" x2="478.7" y2="655.76"/><line class="cls-5" x1="474.15" y1="641.58" x2="472.38" y2="635.35"/><line class="cls-5" x1="468.73" y1="620.91" x2="467.27" y2="614.59"/><path class="cls-5" d="M464.52,600c-.36-2.12-.8-4.24-1.1-6.38"/><path class="cls-5" d="M461.54,578.79c-.32-2.14-.43-4.29-.6-6.45"/><line class="cls-5" x1="459.85" y1="557.48" x2="459.69" y2="551.01"/><line class="cls-5" x1="459.51" y1="536.11" x2="459.67" y2="529.64"/><line class="cls-5" x1="460.4" y1="514.76" x2="460.89" y2="508.3"/><line class="cls-5" x1="462.52" y1="493.5" x2="463.34" y2="487.07"/><path class="cls-5" d="M465.88,472.39c.4-2.12.71-4.26,1.24-6.35"/><path class="cls-5" d="M470.47,451.52c.51-2.1,1.16-4.16,1.73-6.24"/><line class="cls-5" x1="476.41" y1="430.99" x2="478.49" y2="424.85"/><line class="cls-5" x1="483.58" y1="410.85" x2="485.96" y2="404.83"/><line class="cls-5" x1="491.9" y1="391.17" x2="494.57" y2="385.27"/><path class="cls-5" d="M501.36,372c.95-1.95,2-3.81,3.12-5.68"/><line class="cls-5" x1="511.97" y1="353.45" x2="515.47" y2="348"/><line class="cls-5" x1="523.73" y1="335.61" x2="527.49" y2="330.33"/><line class="cls-5" x1="536.5" y1="318.47" x2="540.51" y2="313.38"/><polyline class="cls-5" points="550.23 302.1 552.36 299.65 554.6 297.31"/><line class="cls-5" x1="564.92" y1="286.57" x2="569.61" y2="282.1"/><line class="cls-5" x1="580.56" y1="272.01" x2="585.46" y2="267.77"/><line class="cls-5" x1="597.02" y1="258.37" x2="602.11" y2="254.37"/><polyline class="cls-5" points="614.22 245.69 616.86 243.82 619.59 242.07"/><line class="cls-5" x1="632.15" y1="234.06" x2="637.77" y2="230.83"/><line class="cls-5" x1="650.8" y1="223.62" x2="656.56" y2="220.67"/><line class="cls-5" x1="670.02" y1="214.27" x2="675.92" y2="211.6"/><path class="cls-5" d="M689.75,206.06c2-.78,4-1.63,6.06-2.28"/><path class="cls-5" d="M709.92,199c2.06-.64,4.15-1.19,6.23-1.79"/><line class="cls-5" x1="730.52" y1="193.3" x2="736.83" y2="191.84"/><line class="cls-5" x1="751.42" y1="188.83" x2="757.79" y2="187.69"/><line class="cls-5" x1="772.54" y1="185.59" x2="778.97" y2="184.77"/><path class="cls-5" d="M793.82,183.58c2.15-.14,4.3-.38,6.46-.39"/><path class="cls-5" d="M815.17,182.82c1.08,0,2.16,0,3.24,0l3.24.09"/><line class="cls-5" x1="836.54" y1="183.36" x2="843" y2="183.85"/><line class="cls-5" x1="857.83" y1="185.22" x2="864.26" y2="186.03"/><line class="cls-5" x1="878.98" y1="188.31" x2="885.35" y2="189.45"/><path class="cls-5" d="M899.9,192.64c2.11.49,4.22,1,6.31,1.47"/><path class="cls-5" d="M920.54,198.18c2.1.55,4.13,1.27,6.18,2"/><line class="cls-5" x1="940.8" y1="204.99" x2="946.83" y2="207.36"/><line class="cls-5" x1="960.59" y1="213.07" x2="966.49" y2="215.74"/><line class="cls-5" x1="979.87" y1="222.29" x2="985.63" y2="225.24"/><path class="cls-5" d="M998.58,232.61l2.81,1.61c.94.54,1.83,1.16,2.74,1.73"/><line class="cls-5" x1="1016.66" y1="244.01" x2="1021.94" y2="247.76"/><line class="cls-5" x1="1033.95" y1="256.57" x2="1039.05" y2="260.57"/><line class="cls-5" x1="1050.5" y1="270.1" x2="1055.39" y2="274.34"/><path class="cls-5" d="M1066.24,284.56c1.56,1.49,3.15,2.95,4.61,4.55"/><line class="cls-5" x1="1081.12" y1="299.89" x2="1085.36" y2="304.79"/><line class="cls-5" x1="1094.96" y1="316.18" x2="1098.96" y2="321.28"/><line class="cls-5" x1="1107.84" y1="333.24" x2="1111.59" y2="338.52"/><path class="cls-5" d="M1119.72,351c1.15,1.83,2.38,3.61,3.41,5.5"/><path class="cls-5" d="M1130.56,369.42c1,1.91,2,3.84,3,5.76"/><line class="cls-5" x1="1140.16" y1="388.52" x2="1142.83" y2="394.42"/><line class="cls-5" x1="1148.61" y1="408.14" x2="1150.99" y2="414.17"/><path class="cls-5" d="M1155.92,428.23c.67,2,1.41,4.08,2,6.14"/><path class="cls-5" d="M1162,448.71c.64,2.06,1.06,4.18,1.56,6.28"/><line class="cls-5" x1="1166.87" y1="469.52" x2="1168" y2="475.9"/><line class="cls-5" x1="1170.37" y1="490.61" x2="1171.19" y2="497.03"/><line class="cls-5" x1="1172.65" y1="511.86" x2="1173.14" y2="518.31"/><line class="cls-5" x1="1173.68" y1="533.2" x2="1173.84" y2="539.68"/><g class="cls-3"><path class="cls-1" d="M1173.85,540c0,197.29-159.93,357.22-357.22,357.22S459.41,737.29,459.41,540,619.34,182.78,816.63,182.78,1173.85,342.71,1173.85,540ZM816.63,285.21c-140.72,0-254.79,114.07-254.79,254.79S675.91,794.79,816.63,794.79s254.8-114.07,254.8-254.79S957.35,285.21,816.63,285.21Z"/><line class="cls-5" x1="802.09" y1="285.65" x2="795.64" y2="286.14"/><polyline class="cls-5" points="780.85 287.76 777.64 288.17 774.46 288.74"/><line class="cls-5" x1="759.87" y1="291.63" x2="753.57" y2="293.09"/><line class="cls-5" x1="739.27" y1="297.2" x2="733.14" y2="299.27"/><path class="cls-5" d="M719.23,304.53c-2,.74-4,1.71-5.93,2.58"/><path class="cls-5" d="M699.89,313.55c-1.91,1-3.87,1.91-5.73,3"/><line class="cls-5" x1="681.36" y1="324.11" x2="675.91" y2="327.61"/><line class="cls-5" x1="663.75" y1="336.17" x2="658.66" y2="340.16"/><path class="cls-5" d="M647.26,349.71c-1.66,1.38-3.21,2.88-4.77,4.38"/><path class="cls-5" d="M631.94,364.57c-1.47,1.57-3,3.1-4.43,4.71"/><line class="cls-5" x1="617.89" y1="380.63" x2="613.9" y2="385.72"/><line class="cls-5" x1="605.2" y1="397.78" x2="601.71" y2="403.23"/><path class="cls-5" d="M594.06,416c-.53.93-1.08,1.86-1.6,2.81L591,421.68"/><line class="cls-5" x1="584.47" y1="435.05" x2="581.81" y2="440.94"/><line class="cls-5" x1="576.47" y1="454.83" x2="574.4" y2="460.95"/><path class="cls-5" d="M570.17,475.22c-.59,2.07-1,4.19-1.51,6.28"/><path class="cls-5" d="M565.69,496.08l-.57,3.18c-.19,1.06-.39,2.12-.51,3.19"/><line class="cls-5" x1="562.9" y1="517.23" x2="562.41" y2="523.68"/><path class="cls-5" d="M561.87,538.55c0,1.07,0,2.15,0,3.23L562,545"/><line class="cls-5" x1="562.68" y1="559.87" x2="563.19" y2="566.32"/><line class="cls-5" x1="565.17" y1="581.06" x2="566.31" y2="587.43"/><path class="cls-5" d="M569.46,602c.44,2.12,1.12,4.17,1.68,6.25"/><path class="cls-5" d="M575.54,622.42c.71,2,1.34,4.1,2.12,6.11"/><line class="cls-5" x1="583.27" y1="642.3" x2="585.94" y2="648.2"/><line class="cls-5" x1="592.61" y1="661.49" x2="595.84" y2="667.1"/><polyline class="cls-5" points="603.63 679.77 605.37 682.49 607.25 685.13"/><line class="cls-5" x1="616.1" y1="697.08" x2="620.1" y2="702.16"/><line class="cls-5" x1="629.94" y1="713.32" x2="634.4" y2="718"/><path class="cls-5" d="M645.07,728.37c1.6,1.43,3.25,2.83,4.88,4.25"/><path class="cls-5" d="M661.46,742l2.54,2c.87.65,1.75,1.26,2.63,1.89"/><line class="cls-5" x1="678.91" y1="754.31" x2="684.35" y2="757.81"/><line class="cls-5" x1="697.3" y1="765.13" x2="703.06" y2="768.08"/><path class="cls-5" d="M716.54,774.36c2,.88,4,1.61,6,2.42"/><path class="cls-5" d="M736.51,781.87c2,.67,4.07,1.44,6.16,2"/><line class="cls-5" x1="757.03" y1="787.71" x2="763.34" y2="789.17"/><line class="cls-5" x1="777.96" y1="791.88" x2="784.38" y2="792.69"/><path class="cls-5" d="M799.18,794.13c2.15.15,4.3.38,6.46.39"/><line class="cls-5" x1="820.51" y1="794.7" x2="826.98" y2="794.53"/><path class="cls-5" d="M841.82,793.55c2.15-.19,4.28-.52,6.42-.78"/><path class="cls-5" d="M862.94,790.52l3.19-.57c1.06-.18,2.12-.37,3.17-.64"/><line class="cls-5" x1="883.75" y1="785.8" x2="889.97" y2="784.03"/><line class="cls-5" x1="904.1" y1="779.38" x2="910.12" y2="777.01"/><path class="cls-5" d="M923.8,771.16l2.94-1.33c1-.46,1.93-1,2.89-1.46"/><line class="cls-5" x1="942.75" y1="761.36" x2="948.36" y2="758.14"/><line class="cls-5" x1="960.83" y1="750.04" x2="966.11" y2="746.29"/><path class="cls-5" d="M977.91,737.24c1.69-1.34,3.28-2.8,4.92-4.2"/><path class="cls-5" d="M993.81,723c1.56-1.49,3.15-3,4.61-4.54"/><line class="cls-5" x1="1008.51" y1="707.54" x2="1012.74" y2="702.65"/><line class="cls-5" x1="1021.89" y1="690.92" x2="1025.64" y2="685.65"/><path class="cls-5" d="M1033.83,673.23c.6-.89,1.13-1.83,1.66-2.77l1.61-2.8"/><path class="cls-5" d="M1044.19,654.58c1-1.93,2-3.81,2.87-5.79"/><line class="cls-5" x1="1052.99" y1="635.15" x2="1055.37" y2="629.13"/><line class="cls-5" x1="1060.17" y1="615.05" x2="1061.94" y2="608.83"/><polyline class="cls-5" points="1065.55 594.4 1066.27 591.25 1066.84 588.06"/><line class="cls-5" x1="1069.18" y1="573.37" x2="1070" y2="566.96"/><line class="cls-5" x1="1071.12" y1="552.12" x2="1071.28" y2="545.66"/><path class="cls-5" d="M1071.19,530.79l-.08-3.24c0-1.08-.14-2.15-.21-3.22"/><line class="cls-5" x1="1069.55" y1="509.51" x2="1068.73" y2="503.1"/><line class="cls-5" x1="1066.2" y1="488.44" x2="1064.75" y2="482.13"/><path class="cls-5" d="M1061,467.75l-.88-3.11c-.31-1-.68-2.05-1-3.07"/><line class="cls-5" x1="1054.06" y1="447.56" x2="1051.69" y2="441.54"/><line class="cls-5" x1="1045.52" y1="428.01" x2="1042.57" y2="422.25"/><polyline class="cls-5" points="1035.33 409.26 1034.52 407.86 1033.65 406.5 1031.91 403.77"/><polyline class="cls-5" points="1023.58 391.45 1021.7 388.81 1020.76 387.5 1019.76 386.23"/><line class="cls-5" x1="1010.41" y1="374.66" x2="1006.18" y2="369.77"/><line class="cls-5" x1="995.92" y1="359" x2="991.24" y2="354.53"/><path class="cls-5" d="M980.14,344.63c-1.6-1.45-3.35-2.72-5-4.07"/><path class="cls-5" d="M963.21,331.65l-2.64-1.88c-.87-.63-1.76-1.25-2.67-1.81"/><line class="cls-5" x1="945.27" y1="320.09" x2="939.66" y2="316.87"/><line class="cls-5" x1="926.45" y1="310.04" x2="920.55" y2="307.37"/><path class="cls-5" d="M906.81,301.68c-1-.38-2-.81-3-1.16l-3.07-1"/><line class="cls-5" x1="886.55" y1="295" x2="880.33" y2="293.23"/><line class="cls-5" x1="865.81" y1="289.99" x2="859.44" y2="288.86"/><path class="cls-5" d="M844.71,286.78c-2.13-.32-4.29-.41-6.44-.59"/><line class="cls-5" x1="823.42" y1="285.38" x2="816.95" y2="285.21"/><path class="cls-5" d="M1173.48,554.57l-.08,3.24c0,1.08-.15,2.15-.21,3.23"/><path class="cls-5" d="M1172.06,575.9c-.21,2.14-.53,4.28-.79,6.43"/><line class="cls-5" x1="1169.26" y1="597.08" x2="1168.12" y2="603.46"/><line class="cls-5" x1="1165.19" y1="618.07" x2="1163.74" y2="624.38"/><line class="cls-5" x1="1159.91" y1="638.77" x2="1158.14" y2="645"/><path class="cls-5" d="M1153.42,659.14l-1,3.06c-.34,1-.78,2-1.16,3"/><line class="cls-5" x1="1145.76" y1="679.09" x2="1143.09" y2="684.99"/><line class="cls-5" x1="1136.78" y1="698.48" x2="1133.82" y2="704.25"/><line class="cls-5" x1="1126.69" y1="717.32" x2="1123.46" y2="722.93"/><polyline class="cls-5" points="1115.53 735.54 1113.78 738.27 1112.9 739.63 1111.97 740.96"/><path class="cls-5" d="M1103.33,753.1c-1.27,1.74-2.65,3.41-4,5.11"/><line class="cls-5" x1="1090.03" y1="769.82" x2="1085.79" y2="774.72"/><line class="cls-5" x1="1075.76" y1="785.74" x2="1071.29" y2="790.42"/><path class="cls-5" d="M1060.61,800.81c-1.58,1.47-3.09,3-4.73,4.42"/><path class="cls-5" d="M1044.62,815c-1.64,1.41-3.38,2.69-5.06,4"/><line class="cls-5" x1="1027.75" y1="828.11" x2="1022.47" y2="831.86"/><line class="cls-5" x1="1010.13" y1="840.2" x2="1004.68" y2="843.7"/><path class="cls-5" d="M991.84,851.27c-1.88,1.06-3.72,2.18-5.63,3.19"/><polyline class="cls-5" points="972.95 861.25 971.51 861.99 970.03 862.66 967.08 863.99"/><line class="cls-5" x1="953.46" y1="870.02" x2="947.43" y2="872.4"/><line class="cls-5" x1="933.47" y1="877.57" x2="927.33" y2="879.65"/><line class="cls-5" x1="913.07" y1="883.94" x2="906.84" y2="885.71"/><path class="cls-5" d="M892.33,889.11l-3.16.73c-1,.24-2.12.39-3.18.59"/><path class="cls-5" d="M871.32,893.05c-2.13.3-4.28.56-6.42.83"/><line class="cls-5" x1="850.11" y1="895.61" x2="843.65" y2="896.1"/><line class="cls-5" x1="828.77" y1="896.91" x2="822.3" y2="897.08"/><line class="cls-5" x1="807.4" y1="896.99" x2="800.93" y2="896.82"/><path class="cls-5" d="M786.06,895.83c-2.15-.18-4.3-.3-6.45-.52"/><path class="cls-5" d="M764.83,893.43c-1.07-.14-2.15-.24-3.21-.43l-3.19-.57"/><line class="cls-5" x1="743.77" y1="889.76" x2="737.46" y2="888.31"/><line class="cls-5" x1="723" y1="884.74" x2="716.77" y2="882.97"/><line class="cls-5" x1="702.56" y1="878.51" x2="696.42" y2="876.43"/><path class="cls-5" d="M682.51,871.09c-2-.81-4-1.53-6-2.43"/><path class="cls-5" d="M662.93,862.53c-1-.43-1.95-.93-2.91-1.42l-2.88-1.48"/><line class="cls-5" x1="643.95" y1="852.72" x2="638.33" y2="849.49"/><line class="cls-5" x1="625.59" y1="841.78" x2="620.13" y2="838.28"/><path class="cls-5" d="M607.89,829.8c-1.76-1.26-3.53-2.49-5.27-3.77"/><path class="cls-5" d="M590.9,816.83c-1.72-1.3-3.3-2.78-4.95-4.17"/><line class="cls-5" x1="574.76" y1="802.82" x2="570.07" y2="798.35"/><line class="cls-5" x1="559.51" y1="787.85" x2="555.04" y2="783.16"/><line class="cls-5" x1="545.14" y1="772.03" x2="540.91" y2="767.13"/><path class="cls-5" d="M531.7,755.41c-1.37-1.67-2.57-3.46-3.84-5.21"/><line class="cls-5" x1="519.31" y1="738" x2="515.81" y2="732.54"/><line class="cls-5" x1="508.03" y1="719.85" x2="504.8" y2="714.23"/><line class="cls-5" x1="497.81" y1="701.08" x2="494.86" y2="695.31"/><path class="cls-5" d="M488.7,681.74c-.44-1-.9-2-1.32-3l-1.19-3"/><line class="cls-5" x1="480.77" y1="661.9" x2="478.7" y2="655.76"/><line class="cls-5" x1="474.15" y1="641.58" x2="472.38" y2="635.35"/><line class="cls-5" x1="468.73" y1="620.91" x2="467.27" y2="614.59"/><path class="cls-5" d="M464.52,600c-.36-2.12-.8-4.24-1.1-6.38"/><path class="cls-5" d="M461.54,578.79c-.32-2.14-.43-4.29-.6-6.45"/><line class="cls-5" x1="459.85" y1="557.48" x2="459.69" y2="551.01"/><line class="cls-5" x1="459.51" y1="536.11" x2="459.67" y2="529.64"/><line class="cls-5" x1="460.4" y1="514.76" x2="460.89" y2="508.3"/><line class="cls-5" x1="462.52" y1="493.5" x2="463.34" y2="487.07"/><path class="cls-5" d="M465.88,472.39c.4-2.12.71-4.26,1.24-6.35"/><path class="cls-5" d="M470.47,451.52c.51-2.1,1.16-4.16,1.73-6.24"/><line class="cls-5" x1="476.41" y1="430.99" x2="478.49" y2="424.85"/><line class="cls-5" x1="483.58" y1="410.85" x2="485.96" y2="404.83"/><line class="cls-5" x1="491.9" y1="391.17" x2="494.57" y2="385.27"/><path class="cls-5" d="M501.36,372c.95-1.95,2-3.81,3.12-5.68"/><line class="cls-5" x1="511.97" y1="353.45" x2="515.47" y2="348"/><line class="cls-5" x1="523.73" y1="335.61" x2="527.49" y2="330.33"/><line class="cls-5" x1="536.5" y1="318.47" x2="540.51" y2="313.38"/><polyline class="cls-5" points="550.23 302.1 552.36 299.65 554.6 297.31"/><line class="cls-5" x1="564.92" y1="286.57" x2="569.61" y2="282.1"/><line class="cls-5" x1="580.56" y1="272.01" x2="585.46" y2="267.77"/><line class="cls-5" x1="597.02" y1="258.37" x2="602.11" y2="254.37"/><polyline class="cls-5" points="614.22 245.69 616.86 243.82 619.59 242.07"/><line class="cls-5" x1="632.15" y1="234.06" x2="637.77" y2="230.83"/><line class="cls-5" x1="650.8" y1="223.62" x2="656.56" y2="220.67"/><line class="cls-5" x1="670.02" y1="214.27" x2="675.92" y2="211.6"/><path class="cls-5" d="M689.75,206.06c2-.78,4-1.63,6.06-2.28"/><path class="cls-5" d="M709.92,199c2.06-.64,4.15-1.19,6.23-1.79"/><line class="cls-5" x1="730.52" y1="193.3" x2="736.83" y2="191.84"/><line class="cls-5" x1="751.42" y1="188.83" x2="757.79" y2="187.69"/><line class="cls-5" x1="772.54" y1="185.59" x2="778.97" y2="184.77"/><path class="cls-5" d="M793.82,183.58c2.15-.14,4.3-.38,6.46-.39"/><path class="cls-5" d="M815.17,182.82c1.08,0,2.16,0,3.24,0l3.24.09"/><line class="cls-5" x1="836.54" y1="183.36" x2="843" y2="183.85"/><line class="cls-5" x1="857.83" y1="185.22" x2="864.26" y2="186.03"/><line class="cls-5" x1="878.98" y1="188.31" x2="885.35" y2="189.45"/><path class="cls-5" d="M899.9,192.64c2.11.49,4.22,1,6.31,1.47"/><path class="cls-5" d="M920.54,198.18c2.1.55,4.13,1.27,6.18,2"/><line class="cls-5" x1="940.8" y1="204.99" x2="946.83" y2="207.36"/><line class="cls-5" x1="960.59" y1="213.07" x2="966.49" y2="215.74"/><line class="cls-5" x1="979.87" y1="222.29" x2="985.63" y2="225.24"/><path class="cls-5" d="M998.58,232.61l2.81,1.61c.94.54,1.83,1.16,2.74,1.73"/><line class="cls-5" x1="1016.66" y1="244.01" x2="1021.94" y2="247.76"/><line class="cls-5" x1="1033.95" y1="256.57" x2="1039.05" y2="260.57"/><line class="cls-5" x1="1050.5" y1="270.1" x2="1055.39" y2="274.34"/><path class="cls-5" d="M1066.24,284.56c1.56,1.49,3.15,2.95,4.61,4.55"/><line class="cls-5" x1="1081.12" y1="299.89" x2="1085.36" y2="304.79"/><line class="cls-5" x1="1094.96" y1="316.18" x2="1098.96" y2="321.28"/><line class="cls-5" x1="1107.84" y1="333.24" x2="1111.59" y2="338.52"/><path class="cls-5" d="M1119.72,351c1.15,1.83,2.38,3.61,3.41,5.5"/><path class="cls-5" d="M1130.56,369.42c1,1.91,2,3.84,3,5.76"/><line class="cls-5" x1="1140.16" y1="388.52" x2="1142.83" y2="394.42"/><line class="cls-5" x1="1148.61" y1="408.14" x2="1150.99" y2="414.17"/><path class="cls-5" d="M1155.92,428.23c.67,2,1.41,4.08,2,6.14"/><path class="cls-5" d="M1162,448.71c.64,2.06,1.06,4.18,1.56,6.28"/><line class="cls-5" x1="1166.87" y1="469.52" x2="1168" y2="475.9"/><line class="cls-5" x1="1170.37" y1="490.61" x2="1171.19" y2="497.03"/><line class="cls-5" x1="1172.65" y1="511.86" x2="1173.14" y2="518.31"/><line class="cls-5" x1="1173.68" y1="533.2" x2="1173.84" y2="539.68"/></g><path class="cls-1" d="M1820.23,622.76C1820.23,773.67,1697.89,896,1547,896s-273.25-122.34-273.25-273.25S1396.07,349.51,1547,349.51,1820.23,471.85,1820.23,622.76ZM1547,427.86c-107.64,0-194.9,87.26-194.9,194.9s87.26,194.9,194.9,194.9,194.9-87.26,194.9-194.9S1654.62,427.86,1547,427.86Z"/><path class="cls-2" d="M1518.29,430c-2.12.28-4.21.72-6.31,1.08s-4.21.69-6.28,1.22"/><path class="cls-2" d="M1477.52,440.65l-6,2.35c-2,.83-3.9,1.74-5.84,2.61"/><path class="cls-2" d="M1440,459.86c-1.82,1.12-3.54,2.38-5.28,3.62s-3.5,2.43-5.18,3.74"/><path class="cls-2" d="M1407.51,486.68l-4.42,4.63c-1.44,1.58-2.8,3.22-4.21,4.82"/><path class="cls-2" d="M1381.49,519.84c-1.19,1.77-2.21,3.64-3.28,5.49s-2.18,3.67-3.14,5.57"/><path class="cls-2" d="M1363.21,557.81l-2,6.06c-.68,2-1.2,4.09-1.8,6.14"/><path class="cls-2" d="M1353.59,598.83c-.63,4.22-.81,8.49-1.17,12.74"/><path class="cls-2" d="M1353,641l.12,1.6.2,1.58.4,3.18.4,3.17c.14,1.06.26,2.12.47,3.17"/><polyline class="cls-2" points="1361.36 682.27 1363.41 688.33 1363.93 689.84 1364.52 691.33 1365.69 694.3"/><path class="cls-2" d="M1378.53,720.75l1.59,2.78c.55.91,1.14,1.8,1.71,2.7l3.46,5.38"/><path class="cls-2" d="M1403.53,754.67c3,3.09,5.84,6.23,9,9.11"/><polyline class="cls-2" points="1435.25 782.42 1437.86 784.27 1440.55 786.01 1445.94 789.46"/><path class="cls-2" d="M1472.16,802.76c4,1.55,7.91,3.21,12,4.49"/><polyline class="cls-2" points="1512.61 814.58 1515.76 815.14 1517.33 815.42 1518.92 815.63 1525.27 816.43"/><path class="cls-2" d="M1554.65,817.47c2.14,0,4.26-.21,6.39-.37s4.25-.29,6.38-.51"/><path class="cls-2" d="M1596.35,811.34c4.09-1.2,8.24-2.22,12.25-3.68"/><polyline class="cls-2" points="1635.71 796.28 1638.55 794.82 1639.97 794.09 1641.36 793.29 1646.91 790.1"/><path class="cls-2" d="M1671,773.16l4.83-4.19c.81-.7,1.62-1.38,2.41-2.1l2.32-2.21"/><path class="cls-2" d="M1700.34,743c2.71-3.3,5.11-6.83,7.59-10.3"/><polyline class="cls-2" points="1722.68 707.22 1725.31 701.39 1726.62 698.47 1727.8 695.5"/><path class="cls-2" d="M1736.67,667.47c.46-2.09,1-4.15,1.39-6.25l1.13-6.29"/><path class="cls-2" d="M1741.81,625.64c0-1.06.07-2.13.06-3.2l-.08-3.2-.16-6.39"/><path class="cls-2" d="M1738,583.67l-1.43-6.23-.72-3.12c-.26-1-.57-2.06-.86-3.08"/><path class="cls-2" d="M1725.05,543.55c-.89-1.94-1.73-3.9-2.66-5.81l-2.92-5.7"/><path class="cls-2" d="M1703.85,507.13c-1.22-1.75-2.61-3.37-3.9-5.07s-2.61-3.38-4-5"/><path class="cls-2" d="M1675.3,476.13c-1.62-1.38-3.21-2.81-4.86-4.16l-5-4"/><path class="cls-2" d="M1640.81,451.92c-1.85-1.06-3.79-2-5.67-3s-3.78-2-5.75-2.82"/><polyline class="cls-2" points="1601.89 435.76 1595.73 434.01 1589.5 432.57"/><path class="cls-2" d="M1560.4,428.37l-3.19-.24c-1.06-.05-2.13-.06-3.2-.09l-6.39-.16"/><path class="cls-2" d="M1818.65,652c-.55,4.3-1.06,8.61-1.66,12.9"/><path class="cls-2" d="M1810.75,694.12l-1.77,6.25-.89,3.13c-.3,1-.68,2.06-1,3.09"/><path class="cls-2" d="M1796.33,734.49l-2.68,5.93c-.91,2-2,3.86-2.93,5.8"/><path class="cls-2" d="M1775.76,772.11c-2.26,3.7-4.89,7.15-7.37,10.71"/><path class="cls-2" d="M1749.6,806.08c-2.95,3.17-6,6.28-9,9.43"/><path class="cls-2" d="M1718.4,835.49l-5.11,4-2.56,2c-.86.65-1.76,1.26-2.64,1.9"/><polyline class="cls-2" points="1683.02 859.7 1677.38 862.94 1671.6 865.92"/><path class="cls-2" d="M1644.29,878.11l-3,1.19c-1,.38-2,.7-3.07,1.06l-6.16,2.08"/><path class="cls-2" d="M1603.16,890.2c-4.24.88-8.53,1.56-12.79,2.35"/><line class="cls-2" x1="1560.63" y1="895.67" x2="1547.63" y2="896"/><path class="cls-2" d="M1517.77,894.44c-4.3-.56-8.61-1.07-12.9-1.66"/><path class="cls-2" d="M1475.62,886.54l-6.25-1.78-3.13-.88c-1-.3-2.06-.69-3.09-1"/><path class="cls-2" d="M1435.25,872.11l-5.93-2.68c-2-.91-3.86-1.95-5.8-2.92"/><path class="cls-2" d="M1397.63,851.55c-3.7-2.26-7.15-4.89-10.71-7.38"/><path class="cls-2" d="M1363.66,825.38c-3.17-3-6.28-6-9.43-9"/><path class="cls-2" d="M1334.25,794.19l-4-5.12-2-2.55c-.65-.87-1.26-1.76-1.9-2.64"/><polyline class="cls-2" points="1310.04 758.8 1306.8 753.16 1303.82 747.38"/><path class="cls-2" d="M1291.63,720.08l-1.19-3c-.38-1-.7-2-1.06-3.08l-2.08-6.16"/><path class="cls-2" d="M1279.54,679c-.88-4.25-1.56-8.53-2.35-12.8"/><line class="cls-2" x1="1274.07" y1="636.42" x2="1273.74" y2="623.41"/><path class="cls-2" d="M1275.3,593.55c.56-4.3,1.07-8.6,1.66-12.9"/><path class="cls-2" d="M1283.2,551.41l1.78-6.26.88-3.13c.3-1,.69-2,1-3.08"/><path class="cls-2" d="M1297.63,511l2.67-5.93c.91-2,2-3.87,2.93-5.81"/><path class="cls-2" d="M1318.19,473.42c2.26-3.7,4.89-7.16,7.38-10.71"/><path class="cls-2" d="M1344.36,439.45c3-3.17,6-6.29,9-9.43"/><path class="cls-2" d="M1375.55,410l5.12-4,2.55-2c.87-.66,1.76-1.27,2.64-1.9"/><polyline class="cls-2" points="1410.94 385.82 1416.58 382.58 1422.36 379.61"/><path class="cls-2" d="M1449.66,367.42l3-1.19c1-.38,2-.71,3.08-1.06l6.16-2.09"/><path class="cls-2" d="M1490.79,355.32c4.25-.87,8.53-1.55,12.8-2.34"/><line class="cls-2" x1="1533.32" y1="349.86" x2="1546.33" y2="349.53"/><path class="cls-2" d="M1576.19,351.09c4.3.55,8.6,1.06,12.9,1.66"/><path class="cls-2" d="M1618.33,359l6.26,1.77,3.12.89c1,.3,2.06.68,3.09,1"/><path class="cls-2" d="M1658.7,373.41l5.93,2.68c2,.91,3.87,2,5.81,2.93"/><path class="cls-2" d="M1696.32,394c3.7,2.26,7.16,4.89,10.71,7.37"/><path class="cls-2" d="M1730.29,420.14c3.17,2.95,6.29,6,9.43,9"/><path class="cls-2" d="M1759.71,451.34l4,5.11,2,2.56c.66.86,1.27,1.76,1.9,2.64"/><polyline class="cls-2" points="1783.92 486.72 1787.16 492.36 1790.13 498.14"/><path class="cls-2" d="M1802.32,525.44l1.19,3c.38,1,.71,2,1.06,3.07l2.09,6.16"/><path class="cls-2" d="M1814.42,566.58c.87,4.24,1.55,8.53,2.34,12.79"/><line class="cls-2" x1="1819.88" y1="609.11" x2="1820.21" y2="622.11"/><g class="cls-3"><path class="cls-4" d="M1820.23,622.76C1820.23,773.67,1697.89,896,1547,896s-273.25-122.34-273.25-273.25S1396.07,349.51,1547,349.51,1820.23,471.85,1820.23,622.76ZM1547,427.86c-107.64,0-194.9,87.26-194.9,194.9s87.26,194.9,194.9,194.9,194.9-87.26,194.9-194.9S1654.62,427.86,1547,427.86Z"/></g><path class="cls-5" d="M1787.3,623.11q-3.48,6.18-7,12-3.11-6.18-6.21-12"/><path class="cls-5" d="M1779.06,650.67c-.26,2.24-.66,4.47-1,6.71"/><path class="cls-5" d="M1775.27,672.71c-.48,2.21-.92,4.43-1.45,6.62"/><line class="cls-5" x1="1769.52" y1="694.32" x2="1767.31" y2="700.73"/><path class="cls-5" d="M1761.65,715.25c-.45,1-.83,2.1-1.32,3.12l-1.47,3.06"/><line class="cls-5" x1="1751.79" y1="735.32" x2="1748.49" y2="741.24"/><line class="cls-5" x1="1740.13" y1="754.4" x2="1736.17" y2="759.91"/><polyline class="cls-5" points="1726.62 772.22 1724.48 774.86 1722.2 777.37"/><line class="cls-5" x1="1711.49" y1="788.69" x2="1706.65" y2="793.44"/><path class="cls-5" d="M1699.09,808.8q-7,1.26-13.66,2.31,2.79-6.35,5.32-12.49"/></g></g></svg>