<svg xmlns="http://www.w3.org/2000/svg" viewBox="0 0 1484.55 516.25"><defs><style>.cls-1{font-size:30.73px;fill:#f2f2f2;font-family:FiraCode-Light, Fira Code;}.cls-2,.cls-3{fill:none;stroke:#fff;stroke-linecap:round;stroke-linejoin:round;}.cls-2{stroke-width:1.3px;}.cls-3{stroke-width:0.65px;}</style></defs><title>img-2</title><g id="Layer_2" data-name="Layer 2"><g id="Layer_1-2" data-name="Layer 1"><text class="cls-1" transform="translate(163.6 56.19)">HTML</text><text class="cls-1" transform="translate(171.82 240.19)">CSS</text><text class="cls-1" transform="translate(653.38 240.19)">CSSOM</text><text class="cls-1" transform="translate(1183.07 154.19)">Rander Tree</text><text class="cls-1" transform="translate(1229.16 326.19)">Layout</text><text class="cls-1" transform="translate(1238.38 473.19)">Paint</text><text class="cls-1" transform="translate(671.82 56.19)">DOM</text><line class="cls-2" x1="387.07" y1="43.87" x2="387.07" y2="56.87"/><line class="cls-2" x1="357.17" y1="86.77" x2="344.17" y2="86.77"/><line class="cls-2" x1="314.27" y1="86.77" x2="301.27" y2="86.77"/><line class="cls-2" x1="271.38" y1="86.77" x2="258.38" y2="86.77"/><line class="cls-2" x1="228.48" y1="86.77" x2="215.48" y2="86.77"/><line class="cls-2" x1="185.57" y1="86.77" x2="172.57" y2="86.77"/><line class="cls-2" x1="142.67" y1="86.77" x2="129.67" y2="86.77"/><line class="cls-2" x1="99.77" y1="86.77" x2="86.77" y2="86.77"/><line class="cls-2" x1="56.88" y1="86.77" x2="43.88" y2="86.77"/><line class="cls-2" x1="13.97" y1="56.87" x2="13.97" y2="43.87"/><line class="cls-2" x1="43.88" y1="13.98" x2="56.88" y2="13.98"/><line class="cls-2" x1="86.77" y1="13.98" x2="99.77" y2="13.98"/><line class="cls-2" x1="129.67" y1="13.98" x2="142.67" y2="13.98"/><line class="cls-2" x1="172.57" y1="13.98" x2="185.57" y2="13.98"/><line class="cls-2" x1="215.48" y1="13.98" x2="228.48" y2="13.98"/><line class="cls-2" x1="258.38" y1="13.98" x2="271.38" y2="13.98"/><line class="cls-2" x1="301.27" y1="13.98" x2="314.27" y2="13.98"/><line class="cls-2" x1="344.17" y1="13.98" x2="357.17" y2="13.98"/><line class="cls-2" x1="387.07" y1="73.45" x2="387.07" y2="100.1"/><line class="cls-2" x1="373.75" y1="86.77" x2="400.4" y2="86.77"/><line class="cls-2" x1="27.3" y1="86.77" x2="0.65" y2="86.77"/><line class="cls-2" x1="13.97" y1="73.45" x2="13.97" y2="100.1"/><line class="cls-2" x1="13.97" y1="27.3" x2="13.97" y2="0.65"/><line class="cls-2" x1="27.3" y1="13.98" x2="0.65" y2="13.98"/><line class="cls-2" x1="373.75" y1="13.98" x2="400.4" y2="13.98"/><line class="cls-2" x1="387.07" y1="27.3" x2="387.07" y2="0.65"/><line class="cls-2" x1="387.07" y1="218.87" x2="387.07" y2="231.87"/><line class="cls-2" x1="357.17" y1="261.77" x2="344.17" y2="261.77"/><line class="cls-2" x1="314.27" y1="261.77" x2="301.27" y2="261.77"/><line class="cls-2" x1="271.38" y1="261.77" x2="258.38" y2="261.77"/><line class="cls-2" x1="228.48" y1="261.77" x2="215.48" y2="261.77"/><line class="cls-2" x1="185.57" y1="261.77" x2="172.57" y2="261.77"/><line class="cls-2" x1="142.67" y1="261.77" x2="129.67" y2="261.77"/><line class="cls-2" x1="99.77" y1="261.77" x2="86.77" y2="261.77"/><line class="cls-2" x1="56.88" y1="261.77" x2="43.88" y2="261.77"/><line class="cls-2" x1="13.97" y1="231.87" x2="13.97" y2="218.87"/><line class="cls-2" x1="43.88" y1="188.98" x2="56.88" y2="188.98"/><line class="cls-2" x1="86.77" y1="188.98" x2="99.77" y2="188.98"/><line class="cls-2" x1="129.67" y1="188.98" x2="142.67" y2="188.98"/><line class="cls-2" x1="172.57" y1="188.98" x2="185.57" y2="188.98"/><line class="cls-2" x1="215.48" y1="188.98" x2="228.48" y2="188.98"/><line class="cls-2" x1="258.38" y1="188.98" x2="271.38" y2="188.98"/><line class="cls-2" x1="301.27" y1="188.98" x2="314.27" y2="188.98"/><line class="cls-2" x1="344.17" y1="188.98" x2="357.17" y2="188.98"/><line class="cls-2" x1="387.07" y1="248.45" x2="387.07" y2="275.1"/><line class="cls-2" x1="373.75" y1="261.77" x2="400.4" y2="261.77"/><line class="cls-2" x1="27.3" y1="261.77" x2="0.65" y2="261.77"/><line class="cls-2" x1="13.97" y1="248.45" x2="13.97" y2="275.1"/><line class="cls-2" x1="13.97" y1="202.3" x2="13.97" y2="175.65"/><line class="cls-2" x1="27.3" y1="188.98" x2="0.65" y2="188.98"/><line class="cls-2" x1="373.75" y1="188.98" x2="400.4" y2="188.98"/><line class="cls-2" x1="387.07" y1="202.3" x2="387.07" y2="175.65"/><line class="cls-2" x1="885.57" y1="44.37" x2="885.57" y2="57.37"/><line class="cls-2" x1="855.67" y1="87.27" x2="842.67" y2="87.27"/><line class="cls-2" x1="812.77" y1="87.27" x2="799.77" y2="87.27"/><line class="cls-2" x1="769.88" y1="87.27" x2="756.88" y2="87.27"/><line class="cls-2" x1="726.98" y1="87.27" x2="713.98" y2="87.27"/><line class="cls-2" x1="684.07" y1="87.27" x2="671.07" y2="87.27"/><line class="cls-2" x1="641.17" y1="87.27" x2="628.17" y2="87.27"/><line class="cls-2" x1="598.27" y1="87.27" x2="585.27" y2="87.27"/><line class="cls-2" x1="555.38" y1="87.27" x2="542.38" y2="87.27"/><line class="cls-2" x1="512.48" y1="57.37" x2="512.48" y2="44.37"/><line class="cls-2" x1="542.38" y1="14.48" x2="555.38" y2="14.48"/><line class="cls-2" x1="585.27" y1="14.48" x2="598.27" y2="14.48"/><line class="cls-2" x1="628.17" y1="14.48" x2="641.17" y2="14.48"/><line class="cls-2" x1="671.07" y1="14.48" x2="684.07" y2="14.48"/><line class="cls-2" x1="713.98" y1="14.48" x2="726.98" y2="14.48"/><line class="cls-2" x1="756.88" y1="14.48" x2="769.88" y2="14.48"/><line class="cls-2" x1="799.77" y1="14.48" x2="812.77" y2="14.48"/><line class="cls-2" x1="842.67" y1="14.48" x2="855.67" y2="14.48"/><line class="cls-2" x1="885.57" y1="73.95" x2="885.57" y2="100.6"/><line class="cls-2" x1="872.25" y1="87.27" x2="898.9" y2="87.27"/><line class="cls-2" x1="525.8" y1="87.27" x2="499.15" y2="87.27"/><line class="cls-2" x1="512.48" y1="73.95" x2="512.48" y2="100.6"/><line class="cls-2" x1="512.48" y1="27.8" x2="512.48" y2="1.15"/><line class="cls-2" x1="525.8" y1="14.48" x2="499.15" y2="14.48"/><line class="cls-2" x1="872.25" y1="14.48" x2="898.9" y2="14.48"/><line class="cls-2" x1="885.57" y1="27.8" x2="885.57" y2="1.15"/><line class="cls-2" x1="885.57" y1="219.37" x2="885.57" y2="232.37"/><line class="cls-2" x1="855.67" y1="262.27" x2="842.67" y2="262.27"/><line class="cls-2" x1="812.77" y1="262.27" x2="799.77" y2="262.27"/><line class="cls-2" x1="769.88" y1="262.27" x2="756.88" y2="262.27"/><line class="cls-2" x1="726.98" y1="262.27" x2="713.98" y2="262.27"/><line class="cls-2" x1="684.07" y1="262.27" x2="671.07" y2="262.27"/><line class="cls-2" x1="641.17" y1="262.27" x2="628.17" y2="262.27"/><line class="cls-2" x1="598.27" y1="262.27" x2="585.27" y2="262.27"/><line class="cls-2" x1="555.38" y1="262.27" x2="542.38" y2="262.27"/><line class="cls-2" x1="512.48" y1="232.37" x2="512.48" y2="219.37"/><line class="cls-2" x1="542.38" y1="189.48" x2="555.38" y2="189.48"/><line class="cls-2" x1="585.27" y1="189.48" x2="598.27" y2="189.48"/><line class="cls-2" x1="628.17" y1="189.48" x2="641.17" y2="189.48"/><line class="cls-2" x1="671.07" y1="189.48" x2="684.07" y2="189.48"/><line class="cls-2" x1="713.98" y1="189.48" x2="726.98" y2="189.48"/><line class="cls-2" x1="756.88" y1="189.48" x2="769.88" y2="189.48"/><line class="cls-2" x1="799.77" y1="189.48" x2="812.77" y2="189.48"/><line class="cls-2" x1="842.67" y1="189.48" x2="855.67" y2="189.48"/><line class="cls-2" x1="885.57" y1="248.95" x2="885.57" y2="275.6"/><line class="cls-2" x1="872.25" y1="262.27" x2="898.9" y2="262.27"/><line class="cls-2" x1="525.8" y1="262.27" x2="499.15" y2="262.27"/><line class="cls-2" x1="512.48" y1="248.95" x2="512.48" y2="275.6"/><line class="cls-2" x1="512.48" y1="202.8" x2="512.48" y2="176.15"/><line class="cls-2" x1="525.8" y1="189.48" x2="499.15" y2="189.48"/><line class="cls-2" x1="872.25" y1="189.48" x2="898.9" y2="189.48"/><line class="cls-2" x1="885.57" y1="202.8" x2="885.57" y2="176.15"/><line class="cls-2" x1="1470.57" y1="134.37" x2="1470.57" y2="147.37"/><line class="cls-2" x1="1440.67" y1="177.27" x2="1427.67" y2="177.27"/><line class="cls-2" x1="1397.77" y1="177.27" x2="1384.77" y2="177.27"/><line class="cls-2" x1="1354.88" y1="177.27" x2="1341.88" y2="177.27"/><line class="cls-2" x1="1311.98" y1="177.27" x2="1298.98" y2="177.27"/><line class="cls-2" x1="1269.07" y1="177.27" x2="1256.07" y2="177.27"/><line class="cls-2" x1="1226.17" y1="177.27" x2="1213.17" y2="177.27"/><line class="cls-2" x1="1183.27" y1="177.27" x2="1170.27" y2="177.27"/><line class="cls-2" x1="1140.38" y1="177.27" x2="1127.38" y2="177.27"/><line class="cls-2" x1="1097.48" y1="147.37" x2="1097.48" y2="134.37"/><line class="cls-2" x1="1127.38" y1="104.48" x2="1140.38" y2="104.48"/><line class="cls-2" x1="1170.27" y1="104.48" x2="1183.27" y2="104.48"/><line class="cls-2" x1="1213.17" y1="104.48" x2="1226.17" y2="104.48"/><line class="cls-2" x1="1256.07" y1="104.48" x2="1269.07" y2="104.48"/><line class="cls-2" x1="1298.98" y1="104.48" x2="1311.98" y2="104.48"/><line class="cls-2" x1="1341.88" y1="104.48" x2="1354.88" y2="104.48"/><line class="cls-2" x1="1384.77" y1="104.48" x2="1397.77" y2="104.48"/><line class="cls-2" x1="1427.67" y1="104.48" x2="1440.67" y2="104.48"/><line class="cls-2" x1="1470.57" y1="163.95" x2="1470.57" y2="190.6"/><line class="cls-2" x1="1457.25" y1="177.27" x2="1483.9" y2="177.27"/><line class="cls-2" x1="1110.8" y1="177.27" x2="1084.15" y2="177.27"/><line class="cls-2" x1="1097.48" y1="163.95" x2="1097.48" y2="190.6"/><line class="cls-2" x1="1097.48" y1="117.8" x2="1097.48" y2="91.15"/><line class="cls-2" x1="1110.8" y1="104.48" x2="1084.15" y2="104.48"/><line class="cls-2" x1="1457.25" y1="104.48" x2="1483.9" y2="104.48"/><line class="cls-2" x1="1470.57" y1="117.8" x2="1470.57" y2="91.15"/><line class="cls-2" x1="1470.57" y1="308.37" x2="1470.57" y2="321.37"/><line class="cls-2" x1="1440.67" y1="351.27" x2="1427.67" y2="351.27"/><line class="cls-2" x1="1397.77" y1="351.27" x2="1384.77" y2="351.27"/><line class="cls-2" x1="1354.88" y1="351.27" x2="1341.88" y2="351.27"/><line class="cls-2" x1="1311.98" y1="351.27" x2="1298.98" y2="351.27"/><line class="cls-2" x1="1269.07" y1="351.27" x2="1256.07" y2="351.27"/><line class="cls-2" x1="1226.17" y1="351.27" x2="1213.17" y2="351.27"/><line class="cls-2" x1="1183.27" y1="351.27" x2="1170.27" y2="351.27"/><line class="cls-2" x1="1140.38" y1="351.27" x2="1127.38" y2="351.27"/><line class="cls-2" x1="1097.48" y1="321.37" x2="1097.48" y2="308.37"/><line class="cls-2" x1="1127.38" y1="278.48" x2="1140.38" y2="278.48"/><line class="cls-2" x1="1170.27" y1="278.48" x2="1183.27" y2="278.48"/><line class="cls-2" x1="1213.17" y1="278.48" x2="1226.17" y2="278.48"/><line class="cls-2" x1="1256.07" y1="278.48" x2="1269.07" y2="278.48"/><line class="cls-2" x1="1298.98" y1="278.48" x2="1311.98" y2="278.48"/><line class="cls-2" x1="1341.88" y1="278.48" x2="1354.88" y2="278.48"/><line class="cls-2" x1="1384.77" y1="278.48" x2="1397.77" y2="278.48"/><line class="cls-2" x1="1427.67" y1="278.48" x2="1440.67" y2="278.48"/><line class="cls-2" x1="1470.57" y1="337.95" x2="1470.57" y2="364.6"/><line class="cls-2" x1="1457.25" y1="351.27" x2="1483.9" y2="351.27"/><line class="cls-2" x1="1110.8" y1="351.27" x2="1084.15" y2="351.27"/><line class="cls-2" x1="1097.48" y1="337.95" x2="1097.48" y2="364.6"/><line class="cls-2" x1="1097.48" y1="291.8" x2="1097.48" y2="265.15"/><line class="cls-2" x1="1110.8" y1="278.48" x2="1084.15" y2="278.48"/><line class="cls-2" x1="1457.25" y1="278.48" x2="1483.9" y2="278.48"/><line class="cls-2" x1="1470.57" y1="291.8" x2="1470.57" y2="265.15"/><line class="cls-2" x1="1470.57" y1="459.37" x2="1470.57" y2="472.37"/><line class="cls-2" x1="1440.67" y1="502.28" x2="1427.67" y2="502.28"/><line class="cls-2" x1="1397.77" y1="502.28" x2="1384.77" y2="502.28"/><line class="cls-2" x1="1354.88" y1="502.28" x2="1341.88" y2="502.28"/><line class="cls-2" x1="1311.98" y1="502.28" x2="1298.98" y2="502.28"/><line class="cls-2" x1="1269.07" y1="502.28" x2="1256.07" y2="502.28"/><line class="cls-2" x1="1226.17" y1="502.28" x2="1213.17" y2="502.28"/><line class="cls-2" x1="1183.27" y1="502.28" x2="1170.27" y2="502.28"/><line class="cls-2" x1="1140.38" y1="502.28" x2="1127.38" y2="502.28"/><line class="cls-2" x1="1097.48" y1="472.37" x2="1097.48" y2="459.37"/><line class="cls-2" x1="1127.38" y1="429.48" x2="1140.38" y2="429.48"/><line class="cls-2" x1="1170.27" y1="429.48" x2="1183.27" y2="429.48"/><line class="cls-2" x1="1213.17" y1="429.48" x2="1226.17" y2="429.48"/><line class="cls-2" x1="1256.07" y1="429.48" x2="1269.07" y2="429.48"/><line class="cls-2" x1="1298.98" y1="429.48" x2="1311.98" y2="429.48"/><line class="cls-2" x1="1341.88" y1="429.48" x2="1354.88" y2="429.48"/><line class="cls-2" x1="1384.77" y1="429.48" x2="1397.77" y2="429.48"/><line class="cls-2" x1="1427.67" y1="429.48" x2="1440.67" y2="429.48"/><line class="cls-2" x1="1470.57" y1="488.95" x2="1470.57" y2="515.6"/><line class="cls-2" x1="1457.25" y1="502.28" x2="1483.9" y2="502.28"/><line class="cls-2" x1="1110.8" y1="502.28" x2="1084.15" y2="502.28"/><line class="cls-2" x1="1097.48" y1="488.95" x2="1097.48" y2="515.6"/><line class="cls-2" x1="1097.48" y1="442.8" x2="1097.48" y2="416.15"/><line class="cls-2" x1="1110.8" y1="429.48" x2="1084.15" y2="429.48"/><line class="cls-2" x1="1457.25" y1="429.48" x2="1483.9" y2="429.48"/><line class="cls-2" x1="1470.57" y1="442.8" x2="1470.57" y2="416.15"/><polyline class="cls-3" points="396.36 43.29 408.4 49.88 396.36 56.46"/><line class="cls-3" x1="424" y1="49.87" x2="430.79" y2="49.87"/><line class="cls-3" x1="446.38" y1="49.87" x2="453.17" y2="49.87"/><line class="cls-3" x1="468.76" y1="49.87" x2="475.55" y2="49.87"/><polyline class="cls-3" points="491.15 43.29 503.19 49.88 491.15 56.46"/><polyline class="cls-3" points="396.36 219.29 408.4 225.88 396.36 232.46"/><line class="cls-3" x1="424" y1="225.87" x2="430.79" y2="225.87"/><line class="cls-3" x1="446.38" y1="225.87" x2="453.17" y2="225.87"/><line class="cls-3" x1="468.76" y1="225.87" x2="475.55" y2="225.87"/><polyline class="cls-3" points="491.15 219.29 503.19 225.88 491.15 232.46"/><polyline class="cls-3" points="899.88 219.29 912.36 225.88 899.88 232.46"/><line class="cls-3" x1="928.53" y1="225.87" x2="935.57" y2="225.87"/><line class="cls-3" x1="951.74" y1="225.87" x2="958.77" y2="225.87"/><line class="cls-3" x1="974.95" y1="225.87" x2="981.98" y2="225.87"/><line class="cls-3" x1="998.15" y1="225.87" x2="1005.18" y2="225.87"/><line class="cls-3" x1="1021.33" y1="210.25" x2="1021.33" y2="203.45"/><line class="cls-3" x1="1021.33" y1="187.8" x2="1021.33" y2="181"/><line class="cls-3" x1="1034.38" y1="165.37" x2="1040.03" y2="165.37"/><line class="cls-3" x1="1053.04" y1="165.37" x2="1058.7" y2="165.37"/><polyline class="cls-3" points="1071.7 158.79 1081.74 165.38 1071.7 171.96"/><line class="cls-3" x1="1014.67" y1="225.87" x2="1027.99" y2="225.87"/><line class="cls-3" x1="1021.33" y1="219.21" x2="1021.33" y2="232.54"/><line class="cls-3" x1="1021.33" y1="172.04" x2="1021.33" y2="158.71"/><line class="cls-3" x1="1027.99" y1="165.37" x2="1014.67" y2="165.37"/><polyline class="cls-3" points="899.88 49.29 912.36 55.88 899.88 62.46"/><line class="cls-3" x1="928.53" y1="55.87" x2="935.57" y2="55.87"/><line class="cls-3" x1="951.74" y1="55.87" x2="958.77" y2="55.87"/><line class="cls-3" x1="974.95" y1="55.87" x2="981.98" y2="55.87"/><line class="cls-3" x1="998.15" y1="55.87" x2="1005.18" y2="55.87"/><line class="cls-3" x1="1021.33" y1="71.5" x2="1021.33" y2="78.3"/><line class="cls-3" x1="1021.33" y1="93.95" x2="1021.33" y2="100.75"/><line class="cls-3" x1="1034.38" y1="116.37" x2="1040.03" y2="116.37"/><line class="cls-3" x1="1053.04" y1="116.37" x2="1058.7" y2="116.37"/><polyline class="cls-3" points="1071.7 109.79 1081.74 116.38 1071.7 122.96"/><line class="cls-3" x1="1014.67" y1="55.87" x2="1027.99" y2="55.87"/><line class="cls-3" x1="1021.33" y1="62.54" x2="1021.33" y2="49.21"/><line class="cls-3" x1="1021.33" y1="109.71" x2="1021.33" y2="123.04"/><line class="cls-3" x1="1027.99" y1="116.37" x2="1014.67" y2="116.37"/><polyline class="cls-3" points="1290.61 181.73 1284.03 194.32 1277.44 181.73"/><line class="cls-3" x1="1284.02" y1="210.63" x2="1284.02" y2="217.72"/><line class="cls-3" x1="1284.02" y1="234.03" x2="1284.02" y2="241.12"/><polyline class="cls-3" points="1290.61 257.43 1284.03 270.02 1277.44 257.43"/><polyline class="cls-3" points="1290.61 354.74 1284.03 367.56 1277.44 354.74"/><line class="cls-3" x1="1284.02" y1="384.17" x2="1284.02" y2="391.4"/><polyline class="cls-3" points="1290.61 408.01 1284.03 420.83 1277.44 408.01"/></g></g></svg>