<svg xmlns="http://www.w3.org/2000/svg" viewBox="0 0 1074.5 964"><defs><style>.cls-1{opacity:0.2;}.cls-2,.cls-4{font-size:30.73px;}.cls-2,.cls-3,.cls-4{fill:#f2f2f2;font-family:FiraCode-Light, Fira Code;}.cls-3{font-size:25px;}.cls-4{writing-mode:tb;text-orientation:upright;glyph-orientation-vertical:0deg;}.cls-5{letter-spacing:0em;}.cls-6,.cls-7{fill:none;stroke:#fff;stroke-linecap:round;stroke-linejoin:round;}.cls-6{stroke-width:1.3px;}.cls-7{stroke-width:0.65px;}</style></defs><title>img-1</title><g id="Layer_2" data-name="Layer 2"><g id="Layer_1-2" data-name="Layer 1"><rect class="cls-1" x="106.67" y="539.49" width="737" height="156.36" rx="10.34" ry="10.34"/><text class="cls-2" transform="translate(346.57 84.99)">User Interface</text><text class="cls-2" transform="translate(346.57 342.99)">Browser Engine</text><text class="cls-2" transform="translate(318.92 630.99)">Rendering Engine </text><text class="cls-3" transform="translate(59.62 901.29)">Networking</text><text class="cls-3" transform="translate(462.62 882.85)">Js<tspan x="-75.01" y="30">Interpreater</tspan></text><text class="cls-3" transform="translate(836.62 882.85)">UI<tspan x="-37.5" y="30">Backend</tspan></text><text class="cls-4" transform="translate(1003.12 101.39)">Data<tspan x="0" y="122.91" xml:space="preserve">  </tspan><tspan class="cls-5" x="0" y="159.78">Persistance</tspan></text><line class="cls-6" x1="876.22" y1="54.23" x2="876.22" y2="67.23"/><line class="cls-6" x1="876.22" y1="97.12" x2="876.22" y2="110.12"/><line class="cls-6" x1="846.32" y1="140.02" x2="833.32" y2="140.02"/><line class="cls-6" x1="803.42" y1="140.02" x2="790.42" y2="140.02"/><line class="cls-6" x1="760.52" y1="140.02" x2="747.52" y2="140.02"/><line class="cls-6" x1="717.62" y1="140.02" x2="704.62" y2="140.02"/><line class="cls-6" x1="674.72" y1="140.02" x2="661.72" y2="140.02"/><line class="cls-6" x1="631.82" y1="140.02" x2="618.82" y2="140.02"/><line class="cls-6" x1="588.92" y1="140.02" x2="575.92" y2="140.02"/><line class="cls-6" x1="546.02" y1="140.02" x2="533.02" y2="140.02"/><line class="cls-6" x1="503.12" y1="140.02" x2="490.12" y2="140.02"/><line class="cls-6" x1="460.22" y1="140.02" x2="447.22" y2="140.02"/><line class="cls-6" x1="417.32" y1="140.02" x2="404.32" y2="140.02"/><line class="cls-6" x1="374.42" y1="140.02" x2="361.42" y2="140.02"/><line class="cls-6" x1="331.52" y1="140.02" x2="318.52" y2="140.02"/><line class="cls-6" x1="288.62" y1="140.02" x2="275.62" y2="140.02"/><line class="cls-6" x1="245.72" y1="140.02" x2="232.72" y2="140.02"/><line class="cls-6" x1="202.82" y1="140.02" x2="189.82" y2="140.02"/><line class="cls-6" x1="159.92" y1="140.02" x2="146.92" y2="140.02"/><line class="cls-6" x1="117.02" y1="140.02" x2="104.02" y2="140.02"/><line class="cls-6" x1="74.12" y1="110.12" x2="74.12" y2="97.12"/><line class="cls-6" x1="74.12" y1="67.23" x2="74.12" y2="54.23"/><line class="cls-6" x1="104.02" y1="24.32" x2="117.02" y2="24.32"/><line class="cls-6" x1="146.92" y1="24.32" x2="159.92" y2="24.32"/><line class="cls-6" x1="189.82" y1="24.32" x2="202.82" y2="24.32"/><line class="cls-6" x1="232.72" y1="24.32" x2="245.72" y2="24.32"/><line class="cls-6" x1="275.62" y1="24.32" x2="288.62" y2="24.32"/><line class="cls-6" x1="318.52" y1="24.32" x2="331.52" y2="24.32"/><line class="cls-6" x1="361.42" y1="24.32" x2="374.42" y2="24.32"/><line class="cls-6" x1="404.32" y1="24.32" x2="417.32" y2="24.32"/><line class="cls-6" x1="447.22" y1="24.32" x2="460.22" y2="24.32"/><line class="cls-6" x1="490.12" y1="24.32" x2="503.12" y2="24.32"/><line class="cls-6" x1="533.02" y1="24.32" x2="546.02" y2="24.32"/><line class="cls-6" x1="575.92" y1="24.32" x2="588.92" y2="24.32"/><line class="cls-6" x1="618.82" y1="24.32" x2="631.82" y2="24.32"/><line class="cls-6" x1="661.72" y1="24.32" x2="674.72" y2="24.32"/><line class="cls-6" x1="704.62" y1="24.32" x2="717.62" y2="24.32"/><line class="cls-6" x1="747.52" y1="24.32" x2="760.52" y2="24.32"/><line class="cls-6" x1="790.42" y1="24.32" x2="803.42" y2="24.32"/><line class="cls-6" x1="833.32" y1="24.32" x2="846.32" y2="24.32"/><line class="cls-6" x1="876.22" y1="126.7" x2="876.22" y2="153.35"/><line class="cls-6" x1="862.9" y1="140.02" x2="889.55" y2="140.02"/><line class="cls-6" x1="87.45" y1="140.02" x2="60.8" y2="140.02"/><line class="cls-6" x1="74.12" y1="126.7" x2="74.12" y2="153.35"/><line class="cls-6" x1="74.12" y1="37.65" x2="74.12" y2="11"/><line class="cls-6" x1="87.45" y1="24.32" x2="60.8" y2="24.32"/><line class="cls-6" x1="862.9" y1="24.32" x2="889.55" y2="24.32"/><line class="cls-6" x1="876.22" y1="37.65" x2="876.22" y2="11"/><line class="cls-6" x1="811.87" y1="308.23" x2="811.87" y2="321.23"/><line class="cls-6" x1="811.87" y1="351.12" x2="811.87" y2="364.12"/><line class="cls-6" x1="781.97" y1="394.02" x2="768.97" y2="394.02"/><line class="cls-6" x1="739.07" y1="394.02" x2="726.07" y2="394.02"/><line class="cls-6" x1="696.17" y1="394.02" x2="683.17" y2="394.02"/><line class="cls-6" x1="653.27" y1="394.02" x2="640.27" y2="394.02"/><line class="cls-6" x1="610.37" y1="394.02" x2="597.37" y2="394.02"/><line class="cls-6" x1="567.47" y1="394.02" x2="554.47" y2="394.02"/><line class="cls-6" x1="524.57" y1="394.02" x2="511.57" y2="394.02"/><line class="cls-6" x1="481.67" y1="394.02" x2="468.67" y2="394.02"/><line class="cls-6" x1="438.77" y1="394.02" x2="425.77" y2="394.02"/><line class="cls-6" x1="395.87" y1="394.02" x2="382.87" y2="394.02"/><line class="cls-6" x1="352.97" y1="394.02" x2="339.97" y2="394.02"/><line class="cls-6" x1="310.07" y1="394.02" x2="297.07" y2="394.02"/><line class="cls-6" x1="267.17" y1="394.02" x2="254.17" y2="394.02"/><line class="cls-6" x1="224.27" y1="394.02" x2="211.27" y2="394.02"/><line class="cls-6" x1="181.37" y1="394.02" x2="168.37" y2="394.02"/><line class="cls-6" x1="138.47" y1="364.12" x2="138.47" y2="351.12"/><line class="cls-6" x1="138.47" y1="321.23" x2="138.47" y2="308.23"/><line class="cls-6" x1="168.37" y1="278.32" x2="181.37" y2="278.32"/><line class="cls-6" x1="211.27" y1="278.32" x2="224.27" y2="278.32"/><line class="cls-6" x1="254.17" y1="278.32" x2="267.17" y2="278.32"/><line class="cls-6" x1="297.07" y1="278.32" x2="310.07" y2="278.32"/><line class="cls-6" x1="339.97" y1="278.32" x2="352.97" y2="278.32"/><line class="cls-6" x1="382.87" y1="278.32" x2="395.87" y2="278.32"/><line class="cls-6" x1="425.77" y1="278.32" x2="438.77" y2="278.32"/><line class="cls-6" x1="468.67" y1="278.32" x2="481.67" y2="278.32"/><line class="cls-6" x1="511.57" y1="278.32" x2="524.57" y2="278.32"/><line class="cls-6" x1="554.47" y1="278.32" x2="567.47" y2="278.32"/><line class="cls-6" x1="597.37" y1="278.32" x2="610.37" y2="278.32"/><line class="cls-6" x1="640.27" y1="278.32" x2="653.27" y2="278.32"/><line class="cls-6" x1="683.17" y1="278.32" x2="696.17" y2="278.32"/><line class="cls-6" x1="726.07" y1="278.32" x2="739.07" y2="278.32"/><line class="cls-6" x1="768.97" y1="278.32" x2="781.97" y2="278.32"/><line class="cls-6" x1="811.87" y1="380.7" x2="811.87" y2="407.35"/><line class="cls-6" x1="798.55" y1="394.02" x2="825.2" y2="394.02"/><line class="cls-6" x1="151.8" y1="394.02" x2="125.15" y2="394.02"/><line class="cls-6" x1="138.47" y1="380.7" x2="138.47" y2="407.35"/><line class="cls-6" x1="138.47" y1="291.65" x2="138.47" y2="265"/><line class="cls-6" x1="151.8" y1="278.32" x2="125.15" y2="278.32"/><line class="cls-6" x1="798.55" y1="278.32" x2="825.2" y2="278.32"/><line class="cls-6" x1="811.87" y1="291.65" x2="811.87" y2="265"/><polyline class="cls-7" points="882.76 153 876.17 164.69 869.59 153"/><line class="cls-7" x1="876.17" y1="179.83" x2="876.17" y2="186.41"/><line class="cls-7" x1="876.17" y1="201.54" x2="876.17" y2="208.13"/><line class="cls-7" x1="876.17" y1="223.26" x2="876.17" y2="229.84"/><line class="cls-7" x1="876.17" y1="244.98" x2="876.17" y2="251.56"/><line class="cls-7" x1="876.17" y1="266.7" x2="876.17" y2="273.28"/><line class="cls-7" x1="876.17" y1="288.42" x2="876.17" y2="295"/><line class="cls-7" x1="876.17" y1="310.14" x2="876.17" y2="316.72"/><line class="cls-7" x1="876.17" y1="331.85" x2="876.17" y2="338.44"/><line class="cls-7" x1="876.17" y1="353.57" x2="876.17" y2="360.15"/><line class="cls-7" x1="876.17" y1="375.29" x2="876.17" y2="381.87"/><line class="cls-7" x1="876.17" y1="397.01" x2="876.17" y2="403.59"/><line class="cls-7" x1="876.17" y1="418.73" x2="876.17" y2="425.31"/><line class="cls-7" x1="876.17" y1="440.45" x2="876.17" y2="447.03"/><line class="cls-7" x1="876.17" y1="462.17" x2="876.17" y2="468.75"/><line class="cls-7" x1="876.17" y1="483.88" x2="876.17" y2="490.47"/><line class="cls-7" x1="876.17" y1="505.6" x2="876.17" y2="512.18"/><line class="cls-7" x1="876.17" y1="527.32" x2="876.17" y2="533.9"/><line class="cls-7" x1="876.17" y1="549.04" x2="876.17" y2="555.62"/><line class="cls-7" x1="876.17" y1="570.76" x2="876.17" y2="577.34"/><line class="cls-7" x1="876.17" y1="592.48" x2="876.17" y2="599.06"/><line class="cls-7" x1="876.17" y1="614.2" x2="876.17" y2="620.78"/><line class="cls-7" x1="876.17" y1="635.91" x2="876.17" y2="642.5"/><line class="cls-7" x1="876.17" y1="657.63" x2="876.17" y2="664.21"/><line class="cls-7" x1="876.17" y1="679.35" x2="876.17" y2="685.93"/><line class="cls-7" x1="876.17" y1="701.07" x2="876.17" y2="707.65"/><line class="cls-7" x1="876.17" y1="722.79" x2="876.17" y2="729.37"/><line class="cls-7" x1="876.17" y1="744.51" x2="876.17" y2="751.09"/><line class="cls-7" x1="876.17" y1="766.22" x2="876.17" y2="772.81"/><line class="cls-7" x1="876.17" y1="787.94" x2="876.17" y2="794.52"/><polyline class="cls-7" points="882.76 809.66 876.17 821.35 869.59 809.66"/><line class="cls-6" x1="811.87" y1="591.23" x2="811.87" y2="604.23"/><line class="cls-6" x1="811.87" y1="634.12" x2="811.87" y2="647.12"/><line class="cls-6" x1="781.97" y1="677.02" x2="768.97" y2="677.02"/><line class="cls-6" x1="739.07" y1="677.02" x2="726.07" y2="677.02"/><line class="cls-6" x1="696.17" y1="677.02" x2="683.17" y2="677.02"/><line class="cls-6" x1="653.27" y1="677.02" x2="640.27" y2="677.02"/><line class="cls-6" x1="610.37" y1="677.02" x2="597.37" y2="677.02"/><line class="cls-6" x1="567.47" y1="677.02" x2="554.47" y2="677.02"/><line class="cls-6" x1="524.57" y1="677.02" x2="511.57" y2="677.02"/><line class="cls-6" x1="481.67" y1="677.02" x2="468.67" y2="677.02"/><line class="cls-6" x1="438.77" y1="677.02" x2="425.77" y2="677.02"/><line class="cls-6" x1="395.87" y1="677.02" x2="382.87" y2="677.02"/><line class="cls-6" x1="352.97" y1="677.02" x2="339.97" y2="677.02"/><line class="cls-6" x1="310.07" y1="677.02" x2="297.07" y2="677.02"/><line class="cls-6" x1="267.17" y1="677.02" x2="254.17" y2="677.02"/><line class="cls-6" x1="224.27" y1="677.02" x2="211.27" y2="677.02"/><line class="cls-6" x1="181.37" y1="677.02" x2="168.37" y2="677.02"/><line class="cls-6" x1="138.47" y1="647.12" x2="138.47" y2="634.12"/><line class="cls-6" x1="138.47" y1="604.23" x2="138.47" y2="591.23"/><line class="cls-6" x1="168.37" y1="561.32" x2="181.37" y2="561.32"/><line class="cls-6" x1="211.27" y1="561.32" x2="224.27" y2="561.32"/><line class="cls-6" x1="254.17" y1="561.32" x2="267.17" y2="561.32"/><line class="cls-6" x1="297.07" y1="561.32" x2="310.07" y2="561.32"/><line class="cls-6" x1="339.97" y1="561.32" x2="352.97" y2="561.32"/><line class="cls-6" x1="382.87" y1="561.32" x2="395.87" y2="561.32"/><line class="cls-6" x1="425.77" y1="561.32" x2="438.77" y2="561.32"/><line class="cls-6" x1="468.67" y1="561.32" x2="481.67" y2="561.32"/><line class="cls-6" x1="511.57" y1="561.32" x2="524.57" y2="561.32"/><line class="cls-6" x1="554.47" y1="561.32" x2="567.47" y2="561.32"/><line class="cls-6" x1="597.37" y1="561.32" x2="610.37" y2="561.32"/><line class="cls-6" x1="640.27" y1="561.32" x2="653.27" y2="561.32"/><line class="cls-6" x1="683.17" y1="561.32" x2="696.17" y2="561.32"/><line class="cls-6" x1="726.07" y1="561.32" x2="739.07" y2="561.32"/><line class="cls-6" x1="768.97" y1="561.32" x2="781.97" y2="561.32"/><line class="cls-6" x1="811.87" y1="663.7" x2="811.87" y2="690.35"/><line class="cls-6" x1="798.55" y1="677.02" x2="825.2" y2="677.02"/><line class="cls-6" x1="151.8" y1="677.02" x2="125.15" y2="677.02"/><line class="cls-6" x1="138.47" y1="663.7" x2="138.47" y2="690.35"/><line class="cls-6" x1="138.47" y1="574.65" x2="138.47" y2="548"/><line class="cls-6" x1="151.8" y1="561.32" x2="125.15" y2="561.32"/><line class="cls-6" x1="798.55" y1="561.32" x2="825.2" y2="561.32"/><line class="cls-6" x1="811.87" y1="574.65" x2="811.87" y2="548"/><line class="cls-6" x1="597.37" y1="864.23" x2="597.37" y2="877.23"/><line class="cls-6" x1="597.37" y1="907.12" x2="597.37" y2="920.12"/><line class="cls-6" x1="567.47" y1="950.02" x2="554.47" y2="950.02"/><line class="cls-6" x1="524.57" y1="950.02" x2="511.57" y2="950.02"/><line class="cls-6" x1="481.67" y1="950.02" x2="468.67" y2="950.02"/><line class="cls-6" x1="438.77" y1="950.02" x2="425.77" y2="950.02"/><line class="cls-6" x1="395.87" y1="950.02" x2="382.87" y2="950.02"/><line class="cls-6" x1="352.97" y1="920.12" x2="352.97" y2="907.12"/><line class="cls-6" x1="352.97" y1="877.23" x2="352.97" y2="864.23"/><line class="cls-6" x1="382.87" y1="834.32" x2="395.87" y2="834.32"/><line class="cls-6" x1="425.77" y1="834.32" x2="438.77" y2="834.32"/><line class="cls-6" x1="468.67" y1="834.32" x2="481.67" y2="834.32"/><line class="cls-6" x1="511.57" y1="834.32" x2="524.57" y2="834.32"/><line class="cls-6" x1="554.47" y1="834.32" x2="567.47" y2="834.32"/><line class="cls-6" x1="597.37" y1="936.7" x2="597.37" y2="963.35"/><line class="cls-6" x1="584.05" y1="950.02" x2="610.7" y2="950.02"/><line class="cls-6" x1="366.3" y1="950.02" x2="339.65" y2="950.02"/><line class="cls-6" x1="352.97" y1="936.7" x2="352.97" y2="963.35"/><line class="cls-6" x1="352.97" y1="847.65" x2="352.97" y2="821"/><line class="cls-6" x1="366.3" y1="834.32" x2="339.65" y2="834.32"/><line class="cls-6" x1="584.05" y1="834.32" x2="610.7" y2="834.32"/><line class="cls-6" x1="597.37" y1="847.65" x2="597.37" y2="821"/><line class="cls-6" x1="973.37" y1="864.23" x2="973.37" y2="877.23"/><line class="cls-6" x1="973.37" y1="907.12" x2="973.37" y2="920.12"/><line class="cls-6" x1="943.47" y1="950.02" x2="930.47" y2="950.02"/><line class="cls-6" x1="900.57" y1="950.02" x2="887.57" y2="950.02"/><line class="cls-6" x1="857.67" y1="950.02" x2="844.67" y2="950.02"/><line class="cls-6" x1="814.77" y1="950.02" x2="801.77" y2="950.02"/><line class="cls-6" x1="771.87" y1="950.02" x2="758.87" y2="950.02"/><line class="cls-6" x1="728.97" y1="920.12" x2="728.97" y2="907.12"/><line class="cls-6" x1="728.97" y1="877.23" x2="728.97" y2="864.23"/><line class="cls-6" x1="758.87" y1="834.32" x2="771.87" y2="834.32"/><line class="cls-6" x1="801.77" y1="834.32" x2="814.77" y2="834.32"/><line class="cls-6" x1="844.67" y1="834.32" x2="857.67" y2="834.32"/><line class="cls-6" x1="887.57" y1="834.32" x2="900.57" y2="834.32"/><line class="cls-6" x1="930.47" y1="834.32" x2="943.47" y2="834.32"/><line class="cls-6" x1="973.37" y1="936.7" x2="973.37" y2="963.35"/><line class="cls-6" x1="960.05" y1="950.02" x2="986.7" y2="950.02"/><line class="cls-6" x1="742.3" y1="950.02" x2="715.65" y2="950.02"/><line class="cls-6" x1="728.97" y1="936.7" x2="728.97" y2="963.35"/><line class="cls-6" x1="728.97" y1="847.65" x2="728.97" y2="821"/><line class="cls-6" x1="742.3" y1="834.32" x2="715.65" y2="834.32"/><line class="cls-6" x1="960.05" y1="834.32" x2="986.7" y2="834.32"/><line class="cls-6" x1="973.37" y1="847.65" x2="973.37" y2="821"/><line class="cls-6" x1="258.37" y1="864.23" x2="258.37" y2="877.23"/><line class="cls-6" x1="258.37" y1="907.12" x2="258.37" y2="920.12"/><line class="cls-6" x1="228.47" y1="950.02" x2="215.47" y2="950.02"/><line class="cls-6" x1="185.57" y1="950.02" x2="172.57" y2="950.02"/><line class="cls-6" x1="142.67" y1="950.02" x2="129.67" y2="950.02"/><line class="cls-6" x1="99.77" y1="950.02" x2="86.77" y2="950.02"/><line class="cls-6" x1="56.87" y1="950.02" x2="43.87" y2="950.02"/><line class="cls-6" x1="13.97" y1="920.12" x2="13.97" y2="907.12"/><line class="cls-6" x1="13.97" y1="877.23" x2="13.97" y2="864.23"/><line class="cls-6" x1="43.87" y1="834.32" x2="56.87" y2="834.32"/><line class="cls-6" x1="86.77" y1="834.32" x2="99.77" y2="834.32"/><line class="cls-6" x1="129.67" y1="834.32" x2="142.67" y2="834.32"/><line class="cls-6" x1="172.57" y1="834.32" x2="185.57" y2="834.32"/><line class="cls-6" x1="215.47" y1="834.32" x2="228.47" y2="834.32"/><line class="cls-6" x1="258.37" y1="936.7" x2="258.37" y2="963.35"/><line class="cls-6" x1="245.05" y1="950.02" x2="271.7" y2="950.02"/><line class="cls-6" x1="27.3" y1="950.02" x2="0.65" y2="950.02"/><line class="cls-6" x1="13.97" y1="936.7" x2="13.97" y2="963.35"/><line class="cls-6" x1="13.97" y1="847.65" x2="13.97" y2="821"/><line class="cls-6" x1="27.3" y1="834.32" x2="0.65" y2="834.32"/><line class="cls-6" x1="245.05" y1="834.32" x2="271.7" y2="834.32"/><line class="cls-6" x1="258.37" y1="847.65" x2="258.37" y2="821"/><polyline class="cls-7" points="481.76 423.99 475.18 435.02 468.59 423.99"/><line class="cls-7" x1="475.17" y1="449.31" x2="475.17" y2="455.52"/><line class="cls-7" x1="475.17" y1="469.82" x2="475.17" y2="476.03"/><line class="cls-7" x1="475.17" y1="490.32" x2="475.17" y2="496.53"/><line class="cls-7" x1="475.17" y1="510.83" x2="475.17" y2="517.04"/><polyline class="cls-7" points="481.76 531.33 475.18 542.36 468.59 531.33"/><polyline class="cls-7" points="143.26 702.99 136.68 714.02 130.09 702.99"/><line class="cls-7" x1="136.67" y1="728.31" x2="136.67" y2="734.52"/><line class="cls-7" x1="136.67" y1="748.82" x2="136.67" y2="755.03"/><line class="cls-7" x1="136.67" y1="769.32" x2="136.67" y2="775.53"/><line class="cls-7" x1="136.67" y1="789.83" x2="136.67" y2="796.04"/><polyline class="cls-7" points="143.26 810.33 136.68 821.36 130.09 810.33"/><polyline class="cls-7" points="482.26 702.99 475.68 714.02 469.09 702.99"/><line class="cls-7" x1="475.67" y1="728.31" x2="475.67" y2="734.52"/><line class="cls-7" x1="475.67" y1="748.82" x2="475.67" y2="755.03"/><line class="cls-7" x1="475.67" y1="769.32" x2="475.67" y2="775.53"/><line class="cls-7" x1="475.67" y1="789.83" x2="475.67" y2="796.04"/><polyline class="cls-7" points="482.26 810.33 475.68 821.36 469.09 810.33"/><polyline class="cls-7" points="820.26 702.99 813.67 714.02 807.09 702.99"/><line class="cls-7" x1="813.67" y1="728.31" x2="813.67" y2="734.52"/><line class="cls-7" x1="813.67" y1="748.82" x2="813.67" y2="755.03"/><line class="cls-7" x1="813.67" y1="769.32" x2="813.67" y2="775.53"/><line class="cls-7" x1="813.67" y1="789.83" x2="813.67" y2="796.04"/><polyline class="cls-7" points="820.26 810.33 813.67 821.36 807.09 810.33"/><polyline class="cls-7" points="482.26 152.99 475.68 164.02 469.09 152.99"/><line class="cls-7" x1="475.67" y1="178.31" x2="475.67" y2="184.52"/><line class="cls-7" x1="475.67" y1="198.82" x2="475.67" y2="205.03"/><line class="cls-7" x1="475.67" y1="219.32" x2="475.67" y2="225.53"/><line class="cls-7" x1="475.67" y1="239.83" x2="475.67" y2="246.04"/><polyline class="cls-7" points="482.26 260.33 475.68 271.36 469.09 260.33"/><line class="cls-6" x1="1060.52" y1="43.87" x2="1060.52" y2="56.87"/><line class="cls-6" x1="1060.52" y1="86.77" x2="1060.52" y2="99.77"/><line class="cls-6" x1="1060.52" y1="129.67" x2="1060.52" y2="142.67"/><line class="cls-6" x1="1060.52" y1="172.57" x2="1060.52" y2="185.57"/><line class="cls-6" x1="1060.52" y1="215.48" x2="1060.52" y2="228.48"/><line class="cls-6" x1="1060.52" y1="258.37" x2="1060.52" y2="271.37"/><line class="cls-6" x1="1060.52" y1="301.27" x2="1060.52" y2="314.27"/><line class="cls-6" x1="1060.52" y1="344.17" x2="1060.52" y2="357.17"/><line class="cls-6" x1="1060.52" y1="387.07" x2="1060.52" y2="400.07"/><line class="cls-6" x1="1060.52" y1="429.98" x2="1060.52" y2="442.98"/><line class="cls-6" x1="1060.52" y1="472.87" x2="1060.52" y2="485.87"/><line class="cls-6" x1="1060.52" y1="515.77" x2="1060.52" y2="528.77"/><line class="cls-6" x1="1060.52" y1="558.67" x2="1060.52" y2="571.67"/><line class="cls-6" x1="1060.52" y1="601.57" x2="1060.52" y2="614.57"/><line class="cls-6" x1="1060.52" y1="644.48" x2="1060.52" y2="657.48"/><line class="cls-6" x1="1030.62" y1="687.37" x2="1017.62" y2="687.37"/><line class="cls-6" x1="987.72" y1="687.37" x2="974.72" y2="687.37"/><line class="cls-6" x1="944.82" y1="657.48" x2="944.82" y2="644.48"/><line class="cls-6" x1="944.82" y1="614.57" x2="944.82" y2="601.57"/><line class="cls-6" x1="944.82" y1="571.67" x2="944.82" y2="558.67"/><line class="cls-6" x1="944.82" y1="528.77" x2="944.82" y2="515.77"/><line class="cls-6" x1="944.82" y1="485.87" x2="944.82" y2="472.87"/><line class="cls-6" x1="944.82" y1="442.98" x2="944.82" y2="429.98"/><line class="cls-6" x1="944.82" y1="400.07" x2="944.82" y2="387.07"/><line class="cls-6" x1="944.82" y1="357.17" x2="944.82" y2="344.17"/><line class="cls-6" x1="944.82" y1="314.27" x2="944.82" y2="301.27"/><line class="cls-6" x1="944.82" y1="271.37" x2="944.82" y2="258.37"/><line class="cls-6" x1="944.82" y1="228.48" x2="944.82" y2="215.48"/><line class="cls-6" x1="944.82" y1="185.57" x2="944.82" y2="172.57"/><line class="cls-6" x1="944.82" y1="142.67" x2="944.82" y2="129.67"/><line class="cls-6" x1="944.82" y1="99.77" x2="944.82" y2="86.77"/><line class="cls-6" x1="944.82" y1="56.87" x2="944.82" y2="43.87"/><line class="cls-6" x1="974.72" y1="13.97" x2="987.72" y2="13.97"/><line class="cls-6" x1="1017.62" y1="13.97" x2="1030.62" y2="13.97"/><line class="cls-6" x1="1060.52" y1="674.05" x2="1060.52" y2="700.7"/><line class="cls-6" x1="1047.2" y1="687.37" x2="1073.85" y2="687.37"/><line class="cls-6" x1="958.15" y1="687.37" x2="931.5" y2="687.37"/><line class="cls-6" x1="944.82" y1="674.05" x2="944.82" y2="700.7"/><line class="cls-6" x1="944.82" y1="27.3" x2="944.82" y2="0.65"/><line class="cls-6" x1="958.15" y1="13.97" x2="931.5" y2="13.97"/><line class="cls-6" x1="1047.2" y1="13.97" x2="1073.85" y2="13.97"/><line class="cls-6" x1="1060.52" y1="27.3" x2="1060.52" y2="0.65"/><polyline class="cls-7" points="813.98 329.59 824.81 336.18 813.98 342.76"/><line class="cls-7" x1="838.85" y1="336.17" x2="844.95" y2="336.17"/><line class="cls-7" x1="858.99" y1="336.17" x2="865.09" y2="336.17"/><line class="cls-7" x1="879.12" y1="336.17" x2="885.23" y2="336.17"/><line class="cls-7" x1="899.26" y1="336.17" x2="905.36" y2="336.17"/><line class="cls-7" x1="919.4" y1="336.17" x2="925.5" y2="336.17"/><polyline class="cls-7" points="939.54 329.59 950.37 336.18 939.54 342.76"/></g></g></svg>