<svg xmlns="http://www.w3.org/2000/svg" viewBox="0 0 1920 1080"><defs><style>.cls-1,.cls-2,.cls-5,.cls-6{fill:none;}.cls-2,.cls-5,.cls-6{stroke:#fff;}.cls-2,.cls-5{stroke-linecap:round;stroke-linejoin:round;}.cls-2{stroke-width:1.3px;}.cls-3{opacity:0.09;}.cls-4{fill:#fff;}.cls-5{stroke-width:0.65px;}.cls-6{stroke-miterlimit:10;stroke-width:3px;}</style></defs><title>Asset 4</title><g id="Layer_2" data-name="Layer 2"><g id="Layer_1-2" data-name="Layer 1"><rect class="cls-1" width="1920" height="1080"/><path class="cls-1" d="M227.85,557a369.7,369.7,0,0,1,4.31-56.43"/><path class="cls-1" d="M1820.23,624c0,150.91-122.34,273.25-273.25,273.25S1273.73,774.88,1273.73,624,1396.07,350.72,1547,350.72,1820.23,473.06,1820.23,624ZM1547,429.07c-107.64,0-194.9,87.26-194.9,194.9s87.26,194.9,194.9,194.9,194.9-87.26,194.9-194.9S1654.62,429.07,1547,429.07Z"/><path class="cls-2" d="M1518.29,431.19c-2.12.28-4.21.72-6.31,1.07s-4.21.7-6.28,1.23"/><path class="cls-2" d="M1477.52,441.86l-6,2.35c-2,.83-3.9,1.74-5.84,2.61"/><path class="cls-2" d="M1440,461.07c-1.82,1.12-3.54,2.38-5.28,3.61s-3.5,2.44-5.18,3.75"/><path class="cls-2" d="M1407.51,487.89l-4.42,4.63c-1.44,1.58-2.8,3.22-4.21,4.82"/><path class="cls-2" d="M1381.49,521c-1.19,1.78-2.21,3.65-3.28,5.5s-2.18,3.67-3.14,5.57"/><path class="cls-2" d="M1363.21,559l-2,6.06c-.68,2-1.2,4.1-1.8,6.14"/><path class="cls-2" d="M1353.59,600c-.63,4.22-.81,8.49-1.17,12.74"/><path class="cls-2" d="M1353,642.18l.12,1.59.2,1.59.4,3.18.4,3.17c.14,1.06.26,2.12.47,3.16"/><polyline class="cls-2" points="1361.36 683.47 1363.41 689.53 1363.93 691.05 1364.52 692.54 1365.69 695.51"/><path class="cls-2" d="M1378.53,722l1.59,2.77c.55.92,1.14,1.8,1.71,2.71l3.46,5.38"/><path class="cls-2" d="M1403.53,755.88c3,3.08,5.84,6.23,9,9.11"/><polyline class="cls-2" points="1435.25 783.63 1437.86 785.48 1440.55 787.22 1445.94 790.67"/><path class="cls-2" d="M1472.16,804c4,1.55,7.91,3.21,12,4.49"/><polyline class="cls-2" points="1512.61 815.79 1515.76 816.35 1517.33 816.63 1518.92 816.83 1525.27 817.64"/><path class="cls-2" d="M1554.65,818.68c2.14,0,4.26-.21,6.39-.37s4.25-.3,6.38-.51"/><path class="cls-2" d="M1596.35,812.55c4.09-1.21,8.24-2.22,12.25-3.68"/><polyline class="cls-2" points="1635.71 797.49 1638.55 796.03 1639.97 795.29 1641.36 794.5 1646.91 791.31"/><path class="cls-2" d="M1671,774.37l4.83-4.19c.81-.7,1.62-1.39,2.41-2.1l2.32-2.21"/><path class="cls-2" d="M1700.34,744.17c2.71-3.3,5.11-6.83,7.59-10.3"/><polyline class="cls-2" points="1722.68 708.43 1725.31 702.6 1726.62 699.68 1727.8 696.7"/><path class="cls-2" d="M1736.67,668.67c.46-2.08,1-4.14,1.39-6.24l1.13-6.3"/><path class="cls-2" d="M1741.81,626.85c0-1.07.07-2.13.06-3.2l-.08-3.2-.16-6.39"/><path class="cls-2" d="M1738,584.88l-1.43-6.24-.72-3.11c-.26-1-.57-2.06-.86-3.08"/><path class="cls-2" d="M1725.05,544.76c-.89-1.94-1.73-3.9-2.66-5.82l-2.92-5.69"/><path class="cls-2" d="M1703.85,508.34c-1.22-1.75-2.61-3.38-3.9-5.07s-2.61-3.38-4-5"/><path class="cls-2" d="M1675.3,477.34c-1.62-1.38-3.21-2.82-4.86-4.16l-5-4"/><path class="cls-2" d="M1640.81,453.13c-1.85-1.07-3.79-2-5.67-3s-3.78-2-5.75-2.81"/><polyline class="cls-2" points="1601.89 436.97 1595.73 435.22 1589.5 433.78"/><path class="cls-2" d="M1560.4,429.58l-3.19-.24c-1.06,0-2.13-.06-3.2-.09l-6.39-.16"/><path class="cls-2" d="M1818.65,653.18c-.55,4.3-1.06,8.61-1.66,12.9"/><path class="cls-2" d="M1810.75,695.32l-1.77,6.26-.89,3.13c-.3,1-.68,2.06-1,3.09"/><path class="cls-2" d="M1796.33,735.7l-2.68,5.92c-.91,2-2,3.87-2.93,5.81"/><path class="cls-2" d="M1775.76,773.31c-2.26,3.71-4.89,7.16-7.37,10.71"/><path class="cls-2" d="M1749.6,807.29c-2.95,3.17-6,6.28-9,9.43"/><path class="cls-2" d="M1718.4,836.7l-5.11,4-2.56,2c-.86.65-1.76,1.26-2.64,1.9"/><polyline class="cls-2" points="1683.02 860.91 1677.38 864.15 1671.6 867.12"/><path class="cls-2" d="M1644.29,879.31l-3,1.2c-1,.38-2,.7-3.07,1.06l-6.16,2.08"/><path class="cls-2" d="M1603.16,891.41c-4.24.88-8.53,1.56-12.79,2.34"/><line class="cls-2" x1="1560.63" y1="896.88" x2="1547.63" y2="897.2"/><path class="cls-2" d="M1517.77,895.65c-4.3-.56-8.61-1.07-12.9-1.67"/><path class="cls-2" d="M1475.62,887.75l-6.25-1.78-3.13-.89c-1-.29-2.06-.68-3.09-1"/><path class="cls-2" d="M1435.25,873.32l-5.93-2.68c-2-.91-3.86-1.95-5.8-2.92"/><path class="cls-2" d="M1397.63,852.76c-3.7-2.27-7.15-4.9-10.71-7.38"/><path class="cls-2" d="M1363.66,826.59c-3.17-3-6.28-6-9.43-9"/><path class="cls-2" d="M1334.25,795.4l-4-5.12-2-2.56c-.65-.86-1.26-1.76-1.9-2.64"/><polyline class="cls-2" points="1310.04 760.01 1306.8 754.37 1303.82 748.59"/><path class="cls-2" d="M1291.63,721.29l-1.19-3c-.38-1-.7-2-1.06-3.07L1287.3,709"/><path class="cls-2" d="M1279.54,680.16c-.88-4.25-1.56-8.53-2.35-12.8"/><line class="cls-2" x1="1274.07" y1="637.62" x2="1273.74" y2="624.62"/><path class="cls-2" d="M1275.3,594.76c.56-4.3,1.07-8.61,1.66-12.9"/><path class="cls-2" d="M1283.2,552.62l1.78-6.26.88-3.13c.3-1,.69-2.06,1-3.09"/><path class="cls-2" d="M1297.63,512.24l2.67-5.92c.91-2,2-3.87,2.93-5.81"/><path class="cls-2" d="M1318.19,474.63c2.26-3.71,4.89-7.16,7.38-10.71"/><path class="cls-2" d="M1344.36,440.66c3-3.18,6-6.29,9-9.44"/><path class="cls-2" d="M1375.55,411.24l5.12-4,2.55-2c.87-.65,1.76-1.26,2.64-1.89"/><polyline class="cls-2" points="1410.94 387.03 1416.58 383.79 1422.36 380.82"/><path class="cls-2" d="M1449.66,368.63l3-1.19c1-.39,2-.71,3.08-1.06l6.16-2.09"/><path class="cls-2" d="M1490.79,356.53c4.25-.87,8.53-1.56,12.8-2.34"/><line class="cls-2" x1="1533.32" y1="351.07" x2="1546.33" y2="350.74"/><path class="cls-2" d="M1576.19,352.29c4.3.56,8.6,1.07,12.9,1.67"/><path class="cls-2" d="M1618.33,360.19l6.26,1.78,3.12.89c1,.29,2.06.68,3.09,1"/><path class="cls-2" d="M1658.7,374.62l5.93,2.68c2,.91,3.87,1.95,5.81,2.92"/><path class="cls-2" d="M1696.32,395.19c3.7,2.26,7.16,4.89,10.71,7.37"/><path class="cls-2" d="M1730.29,421.35c3.17,2.95,6.29,6,9.43,9"/><path class="cls-2" d="M1759.71,452.55l4,5.11,2,2.56c.66.86,1.27,1.76,1.9,2.64"/><polyline class="cls-2" points="1783.92 487.93 1787.16 493.57 1790.13 499.35"/><path class="cls-2" d="M1802.32,526.65l1.19,3c.38,1,.71,2.05,1.06,3.07l2.09,6.16"/><path class="cls-2" d="M1814.42,567.79c.87,4.24,1.55,8.53,2.34,12.79"/><line class="cls-2" x1="1819.88" y1="610.32" x2="1820.21" y2="623.32"/><g class="cls-3"><path class="cls-4" d="M1820.23,624c0,150.91-122.34,273.25-273.25,273.25S1273.73,774.88,1273.73,624,1396.07,350.72,1547,350.72,1820.23,473.06,1820.23,624ZM1547,429.07c-107.64,0-194.9,87.26-194.9,194.9s87.26,194.9,194.9,194.9,194.9-87.26,194.9-194.9S1654.62,429.07,1547,429.07Z"/></g><path class="cls-5" d="M1787.3,624.32q-3.48,6.18-7,12-3.11-6.18-6.21-12"/><path class="cls-5" d="M1779.06,651.88c-.26,2.24-.66,4.47-1,6.71"/><path class="cls-5" d="M1775.27,673.92c-.48,2.2-.92,4.42-1.45,6.62"/><line class="cls-5" x1="1769.52" y1="695.52" x2="1767.31" y2="701.94"/><path class="cls-5" d="M1761.65,716.46c-.45,1-.83,2.1-1.32,3.12l-1.47,3"/><line class="cls-5" x1="1751.79" y1="736.53" x2="1748.49" y2="742.45"/><line class="cls-5" x1="1740.13" y1="755.61" x2="1736.17" y2="761.12"/><polyline class="cls-5" points="1726.62 773.43 1724.48 776.07 1722.2 778.58"/><line class="cls-5" x1="1711.49" y1="789.9" x2="1706.65" y2="794.65"/><path class="cls-5" d="M1699.09,810q-7,1.26-13.66,2.31,2.79-6.36,5.32-12.49"/><path class="cls-2" d="M1135.37,540.67c-4.47,7.86-9.07,15.42-14.06,22.62-3.76-7.86-8-15.43-12.27-22.68"/><polyline class="cls-2" points="1117.7 592.44 1117.17 595.59 1116.55 598.72 1115.29 604.98"/><polyline class="cls-2" points="1107.67 633.34 1105.68 639.41 1103.52 645.42"/><path class="cls-2" d="M1092.09,672.47c-1.92,3.8-3.75,7.65-5.81,11.37"/><path class="cls-2" d="M1071.21,709.05c-1.14,1.8-2.39,3.52-3.6,5.27s-2.4,3.52-3.69,5.21"/><path class="cls-2" d="M1045.52,742.42c-2.78,3.23-5.75,6.29-8.64,9.41"/><path class="cls-2" d="M1024.09,782l-6.6,1.29-6.62,1.09c-4.34.74-8.78,1.23-13.08,1.76,1.69-4.07,3.4-8,4.89-12.06l2.23-6,2-6"/><g class="cls-3"><path class="cls-4" d="M213.53,500.82C232.38,378.7,337.94,285.21,465.34,285.21H566.27A356,356,0,0,1,816.63,182.78H465.34c-178.57,0-326.53,131-353,302.16Z"/></g><g class="cls-3"><path class="cls-4" d="M112.31,595c26.43,171.2,174.42,302.27,353,302.27H812.82l-.06,0A356,356,0,0,1,566.27,794.79H465.34c-127.2,0-232.63-93.2-251.72-215Z"/></g><g class="cls-3"><path class="cls-4" d="M1173.85,540c0,197.29-159.93,357.22-357.22,357.22S459.41,737.29,459.41,540,619.34,182.78,816.63,182.78,1173.85,342.71,1173.85,540ZM816.63,285.21c-140.72,0-254.79,114.07-254.79,254.79S675.91,794.79,816.63,794.79s254.8-114.07,254.8-254.79S957.35,285.21,816.63,285.21Z"/><g class="cls-3"><path class="cls-4" d="M1173.85,540c0,197.29-159.93,357.22-357.22,357.22S459.41,737.29,459.41,540,619.34,182.78,816.63,182.78,1173.85,342.71,1173.85,540ZM816.63,285.21c-140.72,0-254.79,114.07-254.79,254.79S675.91,794.79,816.63,794.79s254.8-114.07,254.8-254.79S957.35,285.21,816.63,285.21Z"/></g></g><path class="cls-1" d="M816.21,182.78H465.34c-178.57,0-326.53,131-353,302.16l101.2,15.88C232.38,378.7,337.94,285.21,465.34,285.21H565.42a357.18,357.18,0,0,0,0,509.58H465.34c-127.2,0-232.63-93.2-251.72-215L112.31,595c26.44,171.2,174.42,302.27,353,302.27l347.44,0h0l3,0C1013.07,897.22,1173,737.29,1173,540S1013.3,183,816.21,182.78Zm-.42,612C675.07,794.79,561,680.72,561,540s114.08-254.79,254.8-254.79S1070.58,399.28,1070.58,540,956.5,794.79,815.79,794.79Z"/><line class="cls-5" x1="801.24" y1="794.35" x2="794.79" y2="793.86"/><polyline class="cls-5" points="780 792.24 776.8 791.83 773.61 791.26"/><line class="cls-5" x1="759.02" y1="788.37" x2="752.72" y2="786.91"/><line class="cls-5" x1="738.42" y1="782.8" x2="732.3" y2="780.73"/><path class="cls-5" d="M718.38,775.47c-2-.74-4-1.71-5.93-2.58"/><path class="cls-5" d="M699,766.45c-1.9-1-3.86-1.91-5.73-3"/><line class="cls-5" x1="680.51" y1="755.89" x2="675.06" y2="752.39"/><line class="cls-5" x1="662.9" y1="743.83" x2="657.81" y2="739.84"/><path class="cls-5" d="M646.41,730.29c-1.66-1.38-3.21-2.88-4.76-4.38"/><path class="cls-5" d="M631.1,715.43c-1.48-1.57-3-3.1-4.44-4.71"/><line class="cls-5" x1="617.05" y1="699.37" x2="613.05" y2="694.28"/><line class="cls-5" x1="604.35" y1="682.22" x2="600.86" y2="676.77"/><path class="cls-5" d="M593.22,664c-.54-.93-1.09-1.86-1.6-2.81l-1.48-2.88"/><line class="cls-5" x1="583.62" y1="644.95" x2="580.97" y2="639.06"/><line class="cls-5" x1="575.63" y1="625.17" x2="573.55" y2="619.05"/><path class="cls-5" d="M569.33,604.78c-.6-2.07-1-4.19-1.51-6.28"/><path class="cls-5" d="M564.84,583.92l-.57-3.18c-.19-1.06-.39-2.12-.5-3.19"/><line class="cls-5" x1="562.06" y1="562.77" x2="561.57" y2="556.32"/><path class="cls-5" d="M561,541.45c0-1.07,0-2.15,0-3.23l.08-3.23"/><line class="cls-5" x1="561.84" y1="520.13" x2="562.34" y2="513.68"/><line class="cls-5" x1="564.33" y1="498.94" x2="565.47" y2="492.57"/><path class="cls-5" d="M568.62,478c.43-2.12,1.12-4.17,1.68-6.25"/><path class="cls-5" d="M574.69,457.58c.72-2,1.34-4.1,2.12-6.11"/><line class="cls-5" x1="582.43" y1="437.7" x2="585.09" y2="431.8"/><line class="cls-5" x1="591.77" y1="418.51" x2="594.99" y2="412.9"/><polyline class="cls-5" points="602.78 400.23 604.53 397.51 606.4 394.88"/><line class="cls-5" x1="615.25" y1="382.92" x2="619.25" y2="377.84"/><line class="cls-5" x1="629.09" y1="366.68" x2="633.55" y2="362"/><path class="cls-5" d="M644.22,351.63c1.61-1.44,3.25-2.83,4.88-4.25"/><path class="cls-5" d="M660.61,338l2.54-2c.87-.65,1.76-1.26,2.63-1.89"/><line class="cls-5" x1="678.06" y1="325.69" x2="683.51" y2="322.19"/><line class="cls-5" x1="696.45" y1="314.87" x2="702.21" y2="311.92"/><path class="cls-5" d="M715.69,305.64c2-.88,4-1.61,6-2.42"/><path class="cls-5" d="M735.67,298.13c2.05-.67,4.06-1.44,6.15-2"/><line class="cls-5" x1="756.19" y1="292.29" x2="762.49" y2="290.83"/><line class="cls-5" x1="777.12" y1="288.12" x2="783.53" y2="287.31"/><path class="cls-5" d="M798.34,285.87c2.15-.15,4.29-.38,6.45-.39"/><line class="cls-5" x1="819.67" y1="285.3" x2="826.13" y2="285.47"/><path class="cls-5" d="M841,286.45c2.15.19,4.28.52,6.43.78"/><path class="cls-5" d="M862.1,289.48l3.18.57c1.06.18,2.12.37,3.17.64"/><line class="cls-5" x1="882.9" y1="294.2" x2="889.13" y2="295.97"/><line class="cls-5" x1="903.26" y1="300.62" x2="909.28" y2="302.99"/><path class="cls-5" d="M923,308.84l2.95,1.33c1,.46,1.92,1,2.88,1.46"/><line class="cls-5" x1="941.9" y1="318.64" x2="947.51" y2="321.86"/><line class="cls-5" x1="959.99" y1="329.96" x2="965.26" y2="333.71"/><path class="cls-5" d="M977.06,342.76c1.69,1.34,3.28,2.8,4.92,4.2"/><path class="cls-5" d="M993,357c1.56,1.49,3.14,2.95,4.6,4.54"/><line class="cls-5" x1="1007.66" y1="372.46" x2="1011.9" y2="377.35"/><line class="cls-5" x1="1021.04" y1="389.08" x2="1024.79" y2="394.35"/><path class="cls-5" d="M1033,406.77c.6.89,1.13,1.83,1.67,2.77l1.61,2.8"/><path class="cls-5" d="M1043.35,425.42c1,1.93,2,3.81,2.86,5.79"/><line class="cls-5" x1="1052.15" y1="444.85" x2="1054.52" y2="450.87"/><line class="cls-5" x1="1059.33" y1="464.95" x2="1061.1" y2="471.17"/><polyline class="cls-5" points="1064.7 485.6 1065.42 488.75 1065.99 491.94"/><line class="cls-5" x1="1068.33" y1="506.63" x2="1069.15" y2="513.04"/><line class="cls-5" x1="1070.27" y1="527.88" x2="1070.44" y2="534.34"/><path class="cls-5" d="M1070.35,549.21l-.08,3.24c0,1.08-.15,2.15-.22,3.22"/><line class="cls-5" x1="1068.7" y1="570.49" x2="1067.89" y2="576.9"/><line class="cls-5" x1="1065.35" y1="591.56" x2="1063.9" y2="597.87"/><path class="cls-5" d="M1060.12,612.25l-.88,3.11c-.31,1-.68,2-1,3.07"/><line class="cls-5" x1="1053.21" y1="632.44" x2="1050.84" y2="638.46"/><line class="cls-5" x1="1044.67" y1="651.99" x2="1041.72" y2="657.75"/><polyline class="cls-5" points="1034.48 670.74 1033.68 672.14 1032.81 673.5 1031.06 676.23"/><polyline class="cls-5" points="1022.73 688.55 1020.86 691.19 1019.92 692.5 1018.92 693.77"/><line class="cls-5" x1="1009.57" y1="705.34" x2="1005.33" y2="710.23"/><line class="cls-5" x1="995.07" y1="721" x2="990.39" y2="725.47"/><path class="cls-5" d="M979.29,735.37c-1.6,1.45-3.34,2.72-5,4.07"/><path class="cls-5" d="M962.36,748.35l-2.64,1.88c-.87.63-1.75,1.25-2.67,1.81"/><line class="cls-5" x1="944.42" y1="759.91" x2="938.82" y2="763.13"/><line class="cls-5" x1="925.6" y1="769.96" x2="919.71" y2="772.63"/><path class="cls-5" d="M906,778.32c-1,.38-2,.81-3,1.16l-3.06,1"/><line class="cls-5" x1="885.7" y1="785" x2="879.48" y2="786.77"/><line class="cls-5" x1="864.96" y1="790.01" x2="858.59" y2="791.14"/><path class="cls-5" d="M843.87,793.22c-2.14.32-4.3.41-6.44.59"/><line class="cls-5" x1="822.58" y1="794.62" x2="816.11" y2="794.79"/><line class="cls-5" x1="801.9" y1="182.78" x2="795.36" y2="182.78"/><line class="cls-5" x1="780.3" y1="182.78" x2="773.76" y2="182.78"/><line class="cls-5" x1="758.7" y1="182.78" x2="752.15" y2="182.78"/><line class="cls-5" x1="737.1" y1="182.78" x2="730.55" y2="182.78"/><line class="cls-5" x1="715.5" y1="182.78" x2="708.95" y2="182.78"/><line class="cls-5" x1="693.9" y1="182.78" x2="687.35" y2="182.78"/><line class="cls-5" x1="672.29" y1="182.78" x2="665.75" y2="182.78"/><line class="cls-5" x1="650.69" y1="182.78" x2="644.15" y2="182.78"/><line class="cls-5" x1="629.09" y1="182.78" x2="622.55" y2="182.78"/><line class="cls-5" x1="607.49" y1="182.78" x2="600.94" y2="182.78"/><line class="cls-5" x1="585.89" y1="182.78" x2="579.34" y2="182.78"/><line class="cls-5" x1="564.29" y1="182.78" x2="557.74" y2="182.78"/><line class="cls-5" x1="542.69" y1="182.78" x2="536.14" y2="182.78"/><line class="cls-5" x1="521.08" y1="182.78" x2="514.54" y2="182.78"/><line class="cls-5" x1="499.48" y1="182.78" x2="492.94" y2="182.78"/><line class="cls-5" x1="477.88" y1="182.78" x2="471.34" y2="182.78"/><line class="cls-5" x1="456.28" y1="182.99" x2="449.74" y2="183.14"/><path class="cls-5" d="M434.72,184.12c-2.18.11-4.35.39-6.52.64"/><line class="cls-5" x1="413.26" y1="186.6" x2="406.8" y2="187.64"/><line class="cls-5" x1="392" y1="190.41" x2="385.6" y2="191.74"/><path class="cls-5" d="M371,195.42c-2.13.5-4.2,1.17-6.29,1.8"/><line class="cls-5" x1="350.35" y1="201.75" x2="344.18" y2="203.94"/><line class="cls-5" x1="330.13" y1="209.34" x2="324.07" y2="211.8"/><path class="cls-5" d="M310.38,218.07c-2,.93-3.89,2-5.84,3"/><line class="cls-5" x1="291.25" y1="228.08" x2="285.56" y2="231.32"/><path class="cls-5" d="M272.72,239.19c-1.84,1.17-3.72,2.28-5.49,3.56"/><line class="cls-5" x1="254.88" y1="251.36" x2="249.67" y2="255.31"/><line class="cls-5" x1="237.87" y1="264.66" x2="232.82" y2="268.83"/><path class="cls-5" d="M221.61,278.88c-1.65,1.43-3.14,3-4.71,4.54"/><line class="cls-5" x1="206.3" y1="294.11" x2="201.84" y2="298.9"/><path class="cls-5" d="M191.91,310.22l-2.12,2.49c-.71.82-1.42,1.65-2.08,2.52"/><line class="cls-5" x1="178.47" y1="327.12" x2="174.67" y2="332.45"/><line class="cls-5" x1="166.17" y1="344.87" x2="162.6" y2="350.36"/><path class="cls-5" d="M154.88,363.28c-1.15,1.86-2.16,3.79-3.18,5.72"/><line class="cls-5" x1="144.76" y1="382.36" x2="141.94" y2="388.27"/><line class="cls-5" x1="135.83" y1="402.02" x2="133.28" y2="408.05"/><path class="cls-5" d="M128,422.16c-.72,2-1.35,4.15-2,6.22"/><line class="cls-5" x1="121.59" y1="442.77" x2="119.86" y2="449.09"/><path class="cls-5" d="M116.36,463.73c-.46,2.13-1,4.24-1.39,6.39"/><line class="cls-5" x1="127.34" y1="487.3" x2="133.87" y2="488.32"/><line class="cls-5" x1="148.89" y1="490.68" x2="155.42" y2="491.7"/><line class="cls-5" x1="170.44" y1="494.06" x2="176.97" y2="495.08"/><line class="cls-5" x1="191.99" y1="497.44" x2="198.52" y2="498.47"/><line class="cls-5" x1="216.27" y1="486.28" x2="217.68" y2="480.01"/><line class="cls-5" x1="221.57" y1="465.74" x2="223.54" y2="459.61"/><line class="cls-5" x1="228.57" y1="445.7" x2="231.07" y2="439.78"/><path class="cls-5" d="M237.25,426.34c.94-1.93,2-3.79,3-5.69"/><path class="cls-5" d="M247.53,407.78c1.05-1.87,2.28-3.64,3.43-5.44"/><polyline class="cls-5" points="259.31 390.13 261.19 387.52 263.17 384.99"/><path class="cls-5" d="M272.52,373.52c1.38-1.63,2.76-3.27,4.25-4.82"/><polyline class="cls-5" points="287.04 358.06 289.33 355.8 290.48 354.68 291.67 353.6"/><path class="cls-5" d="M302.8,343.85c1.66-1.36,3.28-2.76,5-4.08"/><line class="cls-5" x1="319.67" y1="330.99" x2="324.96" y2="327.33"/><line class="cls-5" x1="337.55" y1="319.57" x2="343.14" y2="316.39"/><line class="cls-5" x1="356.32" y1="309.68" x2="362.17" y2="307"/><line class="cls-5" x1="375.85" y1="301.38" x2="381.92" y2="299.23"/><path class="cls-5" d="M396,294.76c2.07-.57,4.15-1.08,6.23-1.62"/><path class="cls-5" d="M416.67,289.89c2.09-.48,4.21-.77,6.33-1.12"/><path class="cls-5" d="M437.65,286.75c2.13-.24,4.26-.52,6.4-.63"/><line class="cls-5" x1="458.82" y1="285.35" x2="465.25" y2="285.21"/><line class="cls-5" x1="480.04" y1="285.2" x2="486.48" y2="285.2"/><line class="cls-5" x1="501.27" y1="285.2" x2="507.7" y2="285.2"/><line class="cls-5" x1="522.5" y1="285.2" x2="528.93" y2="285.2"/><line class="cls-5" x1="543.72" y1="285.2" x2="550.15" y2="285.2"/><path class="cls-5" d="M554.8,296.16c-1.53,1.51-2.9,3.16-4.33,4.76"/><line class="cls-5" x1="540.77" y1="312.08" x2="536.76" y2="317.1"/><line class="cls-5" x1="527.76" y1="328.83" x2="523.99" y2="334.04"/><line class="cls-5" x1="515.72" y1="346.3" x2="512.22" y2="351.69"/><path class="cls-5" d="M504.71,364.43c-1.07,1.85-2.19,3.68-3.14,5.61"/><path class="cls-5" d="M494.76,383.16c-.93,1.93-1.79,3.89-2.69,5.84"/><line class="cls-5" x1="486.06" y1="402.51" x2="483.67" y2="408.48"/><line class="cls-5" x1="478.51" y1="422.33" x2="476.43" y2="428.42"/><line class="cls-5" x1="472.13" y1="442.56" x2="470.35" y2="448.74"/><path class="cls-5" d="M466.94,463.13c-.48,2.09-1,4.16-1.35,6.28"/><path class="cls-5" d="M463,484c-.38,2.11-.58,4.24-.87,6.36"/><line class="cls-5" x1="460.3" y1="505.01" x2="459.81" y2="511.42"/><line class="cls-5" x1="458.92" y1="526.18" x2="458.75" y2="532.61"/><line class="cls-5" x1="458.75" y1="547.39" x2="458.92" y2="553.82"/><line class="cls-5" x1="459.81" y1="568.58" x2="460.3" y2="574.99"/><path class="cls-5" d="M462.09,589.67c.29,2.12.49,4.25.87,6.36"/><path class="cls-5" d="M465.59,610.59c.33,2.12.87,4.19,1.35,6.28"/><line class="cls-5" x1="470.35" y1="631.26" x2="472.13" y2="637.44"/><line class="cls-5" x1="476.43" y1="651.58" x2="478.51" y2="657.67"/><line class="cls-5" x1="483.67" y1="671.52" x2="486.06" y2="677.49"/><path class="cls-5" d="M492.07,691c.9,2,1.76,3.91,2.69,5.84"/><path class="cls-5" d="M501.57,710c.95,1.93,2.07,3.76,3.14,5.61"/><line class="cls-5" x1="512.22" y1="728.31" x2="515.72" y2="733.7"/><line class="cls-5" x1="523.99" y1="745.96" x2="527.76" y2="751.17"/><line class="cls-5" x1="536.76" y1="762.9" x2="540.77" y2="767.92"/><path class="cls-5" d="M550.47,779.08c1.43,1.6,2.8,3.25,4.33,4.76"/><line class="cls-5" x1="550.17" y1="794.8" x2="543.75" y2="794.8"/><line class="cls-5" x1="528.97" y1="794.8" x2="522.55" y2="794.8"/><line class="cls-5" x1="507.77" y1="794.8" x2="501.35" y2="794.8"/><line class="cls-5" x1="486.57" y1="794.8" x2="480.15" y2="794.8"/><line class="cls-5" x1="465.38" y1="794.8" x2="458.95" y2="794.65"/><path class="cls-5" d="M444.2,793.89c-2.14-.11-4.26-.38-6.39-.62"/><path class="cls-5" d="M423.17,791.26c-2.11-.36-4.23-.63-6.32-1.11"/><line class="cls-5" x1="402.44" y1="786.91" x2="396.22" y2="785.3"/><line class="cls-5" x1="382.13" y1="780.84" x2="376.08" y2="778.7"/><line class="cls-5" x1="362.41" y1="773.1" x2="356.56" y2="770.43"/><line class="cls-5" x1="343.39" y1="763.75" x2="337.81" y2="760.57"/><line class="cls-5" x1="325.22" y1="752.84" x2="319.93" y2="749.19"/><path class="cls-5" d="M308,740.44c-1.68-1.32-3.31-2.72-5-4.07"/><polyline class="cls-5" points="291.94 726.65 290.75 725.58 289.6 724.45 287.31 722.2"/><path class="cls-5" d="M277,711.59c-1.49-1.54-2.87-3.18-4.26-4.81"/><path class="cls-5" d="M263.42,695.34l-2-2.52c-.64-.86-1.25-1.74-1.88-2.61"/><path class="cls-5" d="M251.2,678c-1.15-1.8-2.38-3.56-3.43-5.42"/><path class="cls-5" d="M240.46,659.77c-1-1.9-2.06-3.76-3-5.69"/><line class="cls-5" x1="231.27" y1="640.68" x2="228.75" y2="634.77"/><line class="cls-5" x1="223.7" y1="620.88" x2="221.72" y2="614.77"/><line class="cls-5" x1="217.81" y1="600.53" x2="216.39" y2="594.26"/><line class="cls-5" x1="198.6" y1="582" x2="192.06" y2="582.98"/><line class="cls-5" x1="177.02" y1="585.24" x2="170.49" y2="586.22"/><line class="cls-5" x1="155.45" y1="588.48" x2="148.92" y2="589.46"/><line class="cls-5" x1="133.88" y1="591.71" x2="127.35" y2="592.69"/><path class="cls-5" d="M114.92,609.6c.36,2.12.91,4.21,1.36,6.32"/><line class="cls-5" x1="119.72" y1="630.39" x2="121.42" y2="636.63"/><line class="cls-5" x1="125.74" y1="650.86" x2="127.72" y2="657.02"/><path class="cls-5" d="M132.91,671c.76,2,1.66,4,2.48,6"/><line class="cls-5" x1="141.38" y1="690.55" x2="144.16" y2="696.39"/><path class="cls-5" d="M151,709.62c1,1.89,2,3.83,3.08,5.68"/><line class="cls-5" x1="161.61" y1="728.11" x2="165.13" y2="733.54"/><line class="cls-5" x1="173.46" y1="745.86" x2="177.22" y2="751.13"/><path class="cls-5" d="M186.27,762.93l2,2.54c.67.85,1.4,1.65,2.09,2.48"/><line class="cls-5" x1="200.08" y1="779.2" x2="204.48" y2="783.93"/><line class="cls-5" x1="214.87" y1="794.58" x2="219.48" y2="799.12"/><path class="cls-5" d="M230.48,809.13c1.57,1.48,3.29,2.78,4.94,4.18"/><line class="cls-5" x1="246.99" y1="822.66" x2="252.14" y2="826.56"/><path class="cls-5" d="M264.25,835.2c1.79,1.21,3.53,2.48,5.34,3.65"/><line class="cls-5" x1="282.19" y1="846.76" x2="287.81" y2="849.96"/><line class="cls-5" x1="300.86" y1="857.1" x2="306.62" y2="860.05"/><path class="cls-5" d="M320.08,866.38c2,.89,3.9,1.83,5.92,2.6"/><line class="cls-5" x1="339.81" y1="874.51" x2="345.9" y2="876.67"/><line class="cls-5" x1="360.02" y1="881.35" x2="366.21" y2="883.24"/><path class="cls-5" d="M380.59,887l3.13.8c1,.27,2.11.46,3.16.69"/><line class="cls-5" x1="401.46" y1="891.49" x2="407.84" y2="892.53"/><line class="cls-5" x1="422.57" y1="894.6" x2="429" y2="895.34"/><polyline class="cls-5" points="443.83 896.5 447.05 896.73 448.67 896.84 450.28 896.88"/><line class="cls-5" x1="465.16" y1="897.22" x2="471.62" y2="897.22"/><line class="cls-5" x1="486.5" y1="897.22" x2="492.97" y2="897.22"/><line class="cls-5" x1="507.85" y1="897.22" x2="514.31" y2="897.22"/><line class="cls-5" x1="529.19" y1="897.22" x2="535.66" y2="897.22"/><line class="cls-5" x1="550.54" y1="897.22" x2="557" y2="897.22"/><line class="cls-5" x1="571.88" y1="897.21" x2="578.35" y2="897.21"/><line class="cls-5" x1="593.23" y1="897.21" x2="599.7" y2="897.21"/><line class="cls-5" x1="614.57" y1="897.21" x2="621.04" y2="897.21"/><line class="cls-5" x1="635.92" y1="897.21" x2="642.39" y2="897.21"/><line class="cls-5" x1="657.26" y1="897.21" x2="663.73" y2="897.21"/><line class="cls-5" x1="678.61" y1="897.21" x2="685.08" y2="897.21"/><line class="cls-5" x1="699.95" y1="897.21" x2="706.42" y2="897.21"/><line class="cls-5" x1="721.3" y1="897.21" x2="727.77" y2="897.21"/><line class="cls-5" x1="742.64" y1="897.21" x2="749.11" y2="897.21"/><line class="cls-5" x1="763.99" y1="897.2" x2="770.46" y2="897.2"/><line class="cls-5" x1="785.33" y1="897.2" x2="791.8" y2="897.2"/><line class="cls-5" x1="806.68" y1="897.2" x2="813.15" y2="897.2"/><path class="cls-5" d="M828,896.91c2.16-.06,4.31-.09,6.47-.18"/><path class="cls-5" d="M849.32,895.6c1.07-.08,2.15-.15,3.22-.25l3.21-.41"/><line class="cls-5" x1="870.51" y1="893.05" x2="876.88" y2="891.91"/><line class="cls-5" x1="891.48" y1="889.11" x2="897.78" y2="887.65"/><line class="cls-5" x1="912.19" y1="883.95" x2="918.41" y2="882.18"/><line class="cls-5" x1="932.56" y1="877.59" x2="938.68" y2="875.52"/><path class="cls-5" d="M952.52,870.06c2-.75,4-1.66,5.94-2.55"/><line class="cls-5" x1="971.99" y1="861.31" x2="977.75" y2="858.36"/><line class="cls-5" x1="990.86" y1="851.35" x2="996.47" y2="848.12"/><line class="cls-5" x1="1009.12" y1="840.31" x2="1014.57" y2="836.82"/><polyline class="cls-5" points="1026.72 828.24 1029.36 826.37 1031.91 824.38"/><line class="cls-5" x1="1043.58" y1="815.16" x2="1048.47" y2="810.92"/><line class="cls-5" x1="1059.56" y1="801.01" x2="1064.24" y2="796.54"/><line class="cls-5" x1="1074.7" y1="785.97" x2="1079.16" y2="781.29"/><path class="cls-5" d="M1089,770.09l2.12-2.44c.71-.82,1.34-1.69,2-2.53"/><line class="cls-5" x1="1102.27" y1="753.41" x2="1106.02" y2="748.14"/><line class="cls-5" x1="1114.46" y1="735.89" x2="1117.95" y2="730.45"/><line class="cls-5" x1="1125.62" y1="717.71" x2="1128.84" y2="712.1"/><path class="cls-5" d="M1135.71,698.91c1-1.93,2-3.82,2.87-5.8"/><path class="cls-5" d="M1144.71,679.55c.84-2,1.59-4,2.39-6"/><line class="cls-5" x1="1152.4" y1="659.65" x2="1154.48" y2="653.52"/><line class="cls-5" x1="1158.91" y1="639.32" x2="1160.67" y2="633.1"/><line class="cls-5" x1="1164.21" y1="618.66" x2="1165.67" y2="612.35"/><polyline class="cls-5" points="1168.3 597.71 1168.87 594.53 1169.28 591.32"/><line class="cls-5" x1="1171.16" y1="576.56" x2="1171.65" y2="570.11"/><line class="cls-5" x1="1172.62" y1="555.27" x2="1172.78" y2="548.8"/><line class="cls-5" x1="1172.85" y1="533.93" x2="1172.69" y2="527.47"/><line class="cls-5" x1="1171.86" y1="512.62" x2="1171.37" y2="506.17"/><path class="cls-5" d="M1169.63,491.39c-.29-2.13-.51-4.28-.85-6.41"/><path class="cls-5" d="M1166.17,470.34c-.34-2.13-.86-4.23-1.34-6.33"/><line class="cls-5" x1="1161.42" y1="449.53" x2="1159.65" y2="443.31"/><line class="cls-5" x1="1155.35" y1="429.07" x2="1153.28" y2="422.94"/><line class="cls-5" x1="1148.11" y1="409" x2="1145.74" y2="402.98"/><path class="cls-5" d="M1139.71,389.39c-.91-2-1.73-4-2.75-5.86"/><path class="cls-5" d="M1130.18,370.29c-1-1.9-2.14-3.75-3.2-5.62"/><line class="cls-5" x1="1119.42" y1="351.86" x2="1115.93" y2="346.41"/><line class="cls-5" x1="1107.6" y1="334.09" x2="1103.85" y2="328.82"/><path class="cls-5" d="M1094.78,317c-1.35-1.68-2.62-3.43-4-5"/><path class="cls-5" d="M1081,300.73c-1.42-1.63-3-3.14-4.43-4.71"/><line class="cls-5" x1="1066.21" y1="285.35" x2="1061.54" y2="280.88"/><line class="cls-5" x1="1050.54" y1="270.87" x2="1045.65" y2="266.63"/><path class="cls-5" d="M1034.06,257.31c-1.71-1.31-3.36-2.7-5.11-4"/><path class="cls-5" d="M1016.83,244.72c-.87-.64-1.77-1.22-2.68-1.8l-2.73-1.75"/><line class="cls-5" x1="998.84" y1="233.25" x2="993.23" y2="230.02"/><line class="cls-5" x1="980.18" y1="222.89" x2="974.43" y2="219.93"/><line class="cls-5" x1="960.96" y1="213.62" x2="955.07" y2="210.95"/><path class="cls-5" d="M941.23,205.48c-2-.83-4-1.5-6.08-2.19"/><line class="cls-5" x1="921.04" y1="198.57" x2="914.82" y2="196.8"/><line class="cls-5" x1="900.45" y1="192.97" x2="894.15" y2="191.51"/><line class="cls-5" x1="879.57" y1="188.57" x2="873.2" y2="187.43"/><path class="cls-5" d="M858.47,185.4c-2.14-.25-4.28-.58-6.42-.78"/><path class="cls-5" d="M837.21,183.47c-1.07-.07-2.14-.19-3.22-.22l-3.24-.08"/><polyline class="cls-5" points="113.5 478.38 112.33 484.94 111.3 491.52"/><line class="cls-5" x1="118.91" y1="485.98" x2="105.75" y2="483.92"/><line class="cls-5" x1="206.95" y1="499.79" x2="220.12" y2="501.84"/><polyline class="cls-5" points="214.7 494.26 213.53 500.82 212.5 507.4"/><polyline class="cls-5" points="558.29 285.2 565.42 285.2 570.09 289.96"/><polyline class="cls-5" points="560.46 290.32 565.42 285.2 565.42 278.54"/><polyline class="cls-5" points="560.46 789.67 565.42 794.79 565.42 801.46"/><polyline class="cls-5" points="558.29 794.79 565.42 794.79 570.09 790.04"/><polyline class="cls-5" points="214.8 586.3 213.62 579.75 212.63 573.16"/><polyline class="cls-5" points="207.04 580.74 213.62 579.75 220.21 578.72"/><line class="cls-5" x1="118.9" y1="593.96" x2="105.73" y2="595.96"/><polyline class="cls-5" points="113.48 601.51 112.31 594.95 111.33 588.36"/><line class="cls-6" x1="566.27" y1="794.79" x2="667.96" y2="896.49"/><circle class="cls-4" cx="566.49" cy="795.22" r="4.23"/></g></g></svg>